<svg width="422" height="369" viewBox="0 0 422 369" fill="none" xmlns="http://www.w3.org/2000/svg">
<rect x="0.515625" y="0.516113" width="420.968" height="79.8387" rx="8" fill="white"/>
<path fill-rule="evenodd" clip-rule="evenodd" d="M44.5606 23.9769L26.6576 25.2943C25.2141 25.4192 24.7109 26.3603 24.7109 27.4885V47.0556C24.7109 47.9347 25.0245 48.6861 25.7787 49.6904L29.9872 55.1466C30.6785 56.0252 31.3066 56.2132 32.6266 56.1503L53.4173 54.8958C55.1757 54.771 55.6787 53.955 55.6787 52.5754V30.5619C55.6787 29.8487 55.3963 29.6427 54.5638 29.0354C54.518 29.002 54.4705 28.9674 54.4214 28.9314L48.7065 24.9177C47.3247 23.9147 46.7591 23.7885 44.5606 23.9769ZM33.098 30.2008C31.4006 30.3154 31.0149 30.3414 30.0509 29.5588L27.5996 27.6147C27.3496 27.3633 27.475 27.0498 28.1028 26.9875L45.3145 25.7331C46.7588 25.6074 47.5124 26.11 48.078 26.5487L51.0302 28.6813C51.1559 28.7437 51.4694 29.1196 51.0923 29.1196L33.3172 30.1861L33.098 30.2008ZM31.1181 52.3869V33.6983C31.1181 32.8831 31.3694 32.5065 32.1228 32.4432L52.537 31.252C53.2294 31.1893 53.543 31.6287 53.543 32.4432V51.0065C53.543 51.8225 53.417 52.5132 52.2859 52.5754L32.751 53.7049C31.6205 53.7671 31.1181 53.3913 31.1181 52.3869ZM50.403 34.7007C50.5282 35.2658 50.403 35.8302 49.8365 35.8937L48.8952 36.0812V49.8783C48.078 50.3172 47.3245 50.5682 46.6965 50.5682C45.6911 50.5682 45.4393 50.2543 44.6863 49.3141L38.5295 39.656V49.0005L40.4777 49.4398C40.4777 49.4398 40.4777 50.5682 38.906 50.5682L34.5729 50.8193C34.447 50.5682 34.5729 49.9415 35.0123 49.8159L36.1431 49.5028V37.1476L34.5731 37.0219C34.4472 36.457 34.7607 35.6423 35.6408 35.5791L40.2893 35.266L46.6965 45.0498V36.3947L45.063 36.2074C44.9375 35.5167 45.4393 35.0151 46.0676 34.9529L50.403 34.7007Z" fill="black"/>
<path d="M76.2568 39.7679H79.6245C80.3729 39.7679 80.9278 39.5937 81.2891 39.2453C81.6633 38.8969 81.8504 38.413 81.8504 37.7937C81.8504 37.1743 81.6633 36.684 81.2891 36.3227C80.9149 35.9614 80.36 35.7808 79.6245 35.7808H76.2568V39.7679ZM76.2568 41.9356V47.355H73.9149V33.613H79.6052C81.1665 33.613 82.3213 34.0001 83.0697 34.7743C83.831 35.5356 84.2116 36.5421 84.2116 37.7937C84.2116 39.0324 83.8245 40.0324 83.0504 40.7937C82.2762 41.555 81.1278 41.9356 79.6052 41.9356H76.2568ZM91.331 37.2324V39.3808C91.1504 39.355 90.9762 39.3421 90.8085 39.3421C89.0794 39.3421 88.2149 40.2711 88.2149 42.1292V47.355H85.9117V37.3098H88.0407V38.7034C88.6085 37.7098 89.5956 37.213 91.002 37.213L91.331 37.2324ZM97.1133 47.5872C95.5649 47.5872 94.3069 47.0776 93.3391 46.0582C92.3843 45.0389 91.9069 43.8001 91.9069 42.3421C91.9069 40.884 92.3843 39.6453 93.3391 38.6259C94.3069 37.5937 95.5649 37.0776 97.1133 37.0776C98.6746 37.0776 99.9327 37.5937 100.888 38.6259C101.855 39.6453 102.339 40.884 102.339 42.3421C102.339 43.8001 101.855 45.0389 100.888 46.0582C99.9327 47.0776 98.6746 47.5872 97.1133 47.5872ZM94.2101 42.3421C94.2101 43.2969 94.481 44.0711 95.023 44.6647C95.5778 45.2582 96.2746 45.555 97.1133 45.555C97.9649 45.555 98.6617 45.2582 99.2036 44.6647C99.7585 44.0711 100.036 43.2969 100.036 42.3421C100.036 41.3743 99.7585 40.5937 99.2036 40.0001C98.6617 39.4066 97.9649 39.1098 97.1133 39.1098C96.2746 39.1098 95.5778 39.4066 95.023 40.0001C94.481 40.5937 94.2101 41.3743 94.2101 42.3421ZM105.634 35.6259C105.208 35.6259 104.86 35.4969 104.589 35.2389C104.318 34.9679 104.182 34.6259 104.182 34.213C104.182 33.7872 104.318 33.4389 104.589 33.1679C104.86 32.8969 105.208 32.7614 105.634 32.7614C106.047 32.7614 106.389 32.8969 106.66 33.1679C106.931 33.4389 107.066 33.7872 107.066 34.213C107.066 34.6259 106.931 34.9679 106.66 35.2389C106.389 35.4969 106.047 35.6259 105.634 35.6259ZM102.886 51.555V49.5034C102.989 49.5163 103.105 49.5227 103.234 49.5227C103.686 49.5227 104.002 49.4324 104.182 49.2518C104.376 49.0711 104.473 48.7163 104.473 48.1872V37.3098H106.776V48.1872C106.776 49.3227 106.479 50.1743 105.886 50.7421C105.292 51.3098 104.492 51.5937 103.486 51.5937L102.886 51.555ZM118.809 43.0001H111.164C111.254 43.8001 111.544 44.4389 112.035 44.9163C112.525 45.3808 113.17 45.613 113.97 45.613C114.499 45.613 114.976 45.484 115.402 45.2259C115.828 44.9679 116.131 44.6195 116.312 44.1808H118.635C118.325 45.2001 117.744 46.0259 116.893 46.6582C116.054 47.2776 115.06 47.5872 113.912 47.5872C112.415 47.5872 111.202 47.0905 110.273 46.0969C109.357 45.1034 108.899 43.8453 108.899 42.3227C108.899 40.8389 109.364 39.5937 110.293 38.5872C111.222 37.5808 112.422 37.0776 113.893 37.0776C115.364 37.0776 116.551 37.5743 117.454 38.5679C118.37 39.5485 118.828 40.7872 118.828 42.284L118.809 43.0001ZM113.893 38.955C113.17 38.955 112.57 39.1679 112.093 39.5937C111.615 40.0195 111.318 40.5872 111.202 41.2969H116.544C116.441 40.5872 116.157 40.0195 115.693 39.5937C115.228 39.1679 114.628 38.955 113.893 38.955ZM120.278 42.3421C120.278 40.8582 120.749 39.613 121.69 38.6066C122.632 37.5872 123.832 37.0776 125.29 37.0776C126.671 37.0776 127.768 37.4711 128.581 38.2582C129.407 39.0324 129.897 39.9292 130.052 40.9485H127.69C127.549 40.3937 127.258 39.9485 126.82 39.613C126.394 39.2776 125.878 39.1098 125.271 39.1098C124.458 39.1098 123.807 39.413 123.316 40.0195C122.826 40.613 122.581 41.3872 122.581 42.3421C122.581 43.2969 122.826 44.0711 123.316 44.6647C123.807 45.2582 124.458 45.555 125.271 45.555C125.878 45.555 126.394 45.3872 126.82 45.0518C127.258 44.7163 127.549 44.2711 127.69 43.7163H130.052C129.897 44.7356 129.407 45.6389 128.581 46.4259C127.768 47.2001 126.671 47.5872 125.29 47.5872C123.832 47.5872 122.632 47.084 121.69 46.0776C120.749 45.0582 120.278 43.813 120.278 42.3421ZM136.521 45.3034V47.2969C136.238 47.3743 135.838 47.413 135.321 47.413C133.36 47.413 132.379 46.4259 132.379 44.4518V39.1485H130.85V37.3098H132.379V34.6969H134.683V37.3098H136.56V39.1485H134.683V44.2195C134.683 45.0066 135.057 45.4001 135.805 45.4001L136.521 45.3034ZM145.731 38.6259C146.415 37.5937 147.486 37.0776 148.944 37.0776C150.389 37.0776 151.525 37.5808 152.351 38.5872C153.189 39.5937 153.609 40.8453 153.609 42.3421C153.609 43.8389 153.189 45.0905 152.351 46.0969C151.525 47.0905 150.389 47.5872 148.944 47.5872C147.383 47.5872 146.254 47.0324 145.557 45.9227V47.355H143.428V32.8388H145.731V38.6259ZM145.654 42.3421C145.654 43.2711 145.905 44.0389 146.409 44.6453C146.925 45.2518 147.615 45.555 148.48 45.555C149.331 45.555 150.015 45.2518 150.531 44.6453C151.047 44.0259 151.305 43.2582 151.305 42.3421C151.305 41.4001 151.047 40.6259 150.531 40.0195C150.015 39.413 149.331 39.1098 148.48 39.1098C147.615 39.1098 146.925 39.413 146.409 40.0195C145.905 40.6259 145.654 41.4001 145.654 42.3421ZM161.152 37.2324V39.3808C160.971 39.355 160.797 39.3421 160.63 39.3421C158.901 39.3421 158.036 40.2711 158.036 42.1292V47.355H155.733V37.3098H157.862V38.7034C158.43 37.7098 159.417 37.213 160.823 37.213L161.152 37.2324ZM163.982 35.6259C163.556 35.6259 163.208 35.4969 162.937 35.2389C162.666 34.9679 162.53 34.6259 162.53 34.213C162.53 33.7872 162.666 33.4389 162.937 33.1679C163.208 32.8969 163.556 32.7614 163.982 32.7614C164.395 32.7614 164.737 32.8969 165.008 33.1679C165.279 33.4389 165.414 33.7872 165.414 34.213C165.414 34.6259 165.279 34.9679 165.008 35.2389C164.737 35.4969 164.395 35.6259 163.982 35.6259ZM162.821 47.355V37.3098H165.124V47.355H162.821ZM177.157 43.0001H169.512C169.602 43.8001 169.892 44.4389 170.383 44.9163C170.873 45.3808 171.518 45.613 172.318 45.613C172.847 45.613 173.325 45.484 173.75 45.2259C174.176 44.9679 174.479 44.6195 174.66 44.1808H176.983C176.673 45.2001 176.092 46.0259 175.241 46.6582C174.402 47.2776 173.408 47.5872 172.26 47.5872C170.763 47.5872 169.55 47.0905 168.621 46.0969C167.705 45.1034 167.247 43.8453 167.247 42.3227C167.247 40.8389 167.712 39.5937 168.641 38.5872C169.57 37.5808 170.77 37.0776 172.241 37.0776C173.712 37.0776 174.899 37.5743 175.802 38.5679C176.718 39.5485 177.176 40.7872 177.176 42.284L177.157 43.0001ZM172.241 38.955C171.518 38.955 170.918 39.1679 170.441 39.5937C169.963 40.0195 169.666 40.5872 169.55 41.2969H174.892C174.789 40.5872 174.505 40.0195 174.041 39.5937C173.576 39.1679 172.976 38.955 172.241 38.955ZM179.69 37.3098V36.2453C179.69 35.1098 179.98 34.2582 180.561 33.6905C181.142 33.1227 181.935 32.8388 182.942 32.8388L183.716 32.8969V34.9292C183.639 34.9034 183.497 34.8905 183.29 34.8905C182.826 34.8905 182.49 35.0066 182.284 35.2389C182.09 35.4582 181.993 35.8389 181.993 36.3808V37.3098H183.774V39.1485H181.993V47.355H179.69V39.1485H178.084V37.3098H179.69Z" fill="#746E8C"/>
<rect x="0.515625" y="96.4839" width="420.968" height="79.8387" rx="8" fill="white"/>
<path d="M78.5794 143.323H73.9149V129.581H78.5794C80.902 129.581 82.7084 130.213 83.9987 131.478C85.302 132.729 85.9536 134.387 85.9536 136.452C85.9536 138.516 85.302 140.181 83.9987 141.445C82.7084 142.697 80.902 143.323 78.5794 143.323ZM82.2181 139.916C83.0568 139.078 83.4762 137.923 83.4762 136.452C83.4762 134.981 83.0568 133.832 82.2181 133.007C81.3923 132.168 80.1536 131.749 78.502 131.749H76.2568V141.155H78.502C80.1536 141.155 81.3923 140.742 82.2181 139.916ZM97.4882 138.968H89.843C89.9333 139.768 90.2236 140.407 90.714 140.884C91.2043 141.349 91.8494 141.581 92.6494 141.581C93.1785 141.581 93.6559 141.452 94.0817 141.194C94.5075 140.936 94.8107 140.587 94.9914 140.149H97.314C97.0043 141.168 96.4236 141.994 95.572 142.626C94.7333 143.245 93.7398 143.555 92.5914 143.555C91.0946 143.555 89.8817 143.058 88.9527 142.065C88.0365 141.071 87.5785 139.813 87.5785 138.29C87.5785 136.807 88.043 135.561 88.972 134.555C89.9011 133.549 91.1011 133.045 92.572 133.045C94.043 133.045 95.2301 133.542 96.1333 134.536C97.0494 135.516 97.5075 136.755 97.5075 138.252L97.4882 138.968ZM92.572 134.923C91.8494 134.923 91.2494 135.136 90.772 135.561C90.2946 135.987 89.9978 136.555 89.8817 137.265H95.2236C95.1204 136.555 94.8365 135.987 94.372 135.561C93.9075 135.136 93.3075 134.923 92.572 134.923ZM103.06 143.555C101.68 143.555 100.641 143.232 99.9441 142.587C99.2473 141.942 98.8667 141.116 98.8022 140.11H101.028C101.054 140.574 101.254 140.949 101.628 141.232C102.002 141.516 102.525 141.658 103.196 141.658C103.789 141.658 104.247 141.555 104.57 141.349C104.892 141.142 105.054 140.865 105.054 140.516C105.054 140.129 104.854 139.845 104.454 139.665C104.067 139.471 103.589 139.329 103.022 139.239C102.454 139.149 101.886 139.032 101.318 138.89C100.751 138.736 100.267 138.439 99.8667 138C99.4796 137.561 99.286 136.961 99.286 136.2C99.286 135.323 99.6473 134.581 100.37 133.974C101.105 133.355 102.073 133.045 103.273 133.045C103.957 133.045 104.557 133.155 105.073 133.374C105.602 133.581 106.009 133.858 106.292 134.207C106.589 134.555 106.809 134.91 106.951 135.271C107.105 135.632 107.196 136 107.222 136.374H105.015C104.976 135.974 104.802 135.632 104.492 135.349C104.196 135.065 103.77 134.923 103.215 134.923C102.66 134.923 102.234 135.032 101.938 135.252C101.641 135.458 101.492 135.749 101.492 136.123C101.492 136.471 101.686 136.736 102.073 136.916C102.473 137.097 102.957 137.232 103.525 137.323C104.092 137.413 104.66 137.542 105.228 137.71C105.796 137.865 106.273 138.168 106.66 138.62C107.06 139.071 107.26 139.671 107.26 140.42C107.26 141.323 106.892 142.071 106.157 142.665C105.434 143.258 104.402 143.555 103.06 143.555ZM110.492 131.594C110.066 131.594 109.717 131.465 109.446 131.207C109.175 130.936 109.04 130.594 109.04 130.181C109.04 129.755 109.175 129.407 109.446 129.136C109.717 128.865 110.066 128.729 110.492 128.729C110.904 128.729 111.246 128.865 111.517 129.136C111.788 129.407 111.924 129.755 111.924 130.181C111.924 130.594 111.788 130.936 111.517 131.207C111.246 131.465 110.904 131.594 110.492 131.594ZM109.33 143.323V133.278H111.634V143.323H109.33ZM121.731 134.71V133.278H123.86V142.897C123.86 144.265 123.434 145.381 122.582 146.245C121.744 147.123 120.57 147.561 119.06 147.561C117.679 147.561 116.595 147.207 115.808 146.497C115.034 145.787 114.582 144.974 114.453 144.058H116.757C117.041 145.078 117.821 145.587 119.099 145.587C119.873 145.587 120.473 145.368 120.899 144.929C121.337 144.503 121.557 143.929 121.557 143.207V141.639C120.886 142.671 119.828 143.187 118.382 143.187C116.989 143.187 115.866 142.703 115.015 141.736C114.176 140.755 113.757 139.549 113.757 138.116C113.757 136.684 114.176 135.484 115.015 134.516C115.866 133.536 116.989 133.045 118.382 133.045C119.918 133.045 121.034 133.6 121.731 134.71ZM121.653 138.116C121.653 137.226 121.395 136.497 120.879 135.929C120.363 135.361 119.686 135.078 118.847 135.078C118.021 135.078 117.35 135.361 116.834 135.929C116.318 136.497 116.06 137.226 116.06 138.116C116.06 138.994 116.318 139.723 116.834 140.303C117.35 140.871 118.021 141.155 118.847 141.155C119.686 141.155 120.363 140.871 120.879 140.303C121.395 139.723 121.653 138.994 121.653 138.116ZM128.697 133.278V134.613C128.929 134.174 129.31 133.807 129.839 133.51C130.381 133.2 131.033 133.045 131.794 133.045C132.981 133.045 133.897 133.407 134.542 134.129C135.2 134.852 135.529 135.813 135.529 137.013V143.323H133.226V137.303C133.226 136.594 133.059 136.039 132.723 135.639C132.4 135.226 131.904 135.02 131.233 135.02C130.497 135.02 129.917 135.239 129.491 135.678C129.078 136.116 128.871 136.723 128.871 137.497V143.323H126.568V133.278H128.697ZM141.675 143.555C140.295 143.555 139.256 143.232 138.559 142.587C137.862 141.942 137.482 141.116 137.417 140.11H139.643C139.669 140.574 139.869 140.949 140.243 141.232C140.617 141.516 141.14 141.658 141.811 141.658C142.404 141.658 142.862 141.555 143.185 141.349C143.508 141.142 143.669 140.865 143.669 140.516C143.669 140.129 143.469 139.845 143.069 139.665C142.682 139.471 142.204 139.329 141.637 139.239C141.069 139.149 140.501 139.032 139.933 138.89C139.366 138.736 138.882 138.439 138.482 138C138.095 137.561 137.901 136.961 137.901 136.2C137.901 135.323 138.262 134.581 138.985 133.974C139.721 133.355 140.688 133.045 141.888 133.045C142.572 133.045 143.172 133.155 143.688 133.374C144.217 133.581 144.624 133.858 144.908 134.207C145.204 134.555 145.424 134.91 145.566 135.271C145.721 135.632 145.811 136 145.837 136.374H143.63C143.592 135.974 143.417 135.632 143.108 135.349C142.811 135.065 142.385 134.923 141.83 134.923C141.275 134.923 140.85 135.032 140.553 135.252C140.256 135.458 140.108 135.749 140.108 136.123C140.108 136.471 140.301 136.736 140.688 136.916C141.088 137.097 141.572 137.232 142.14 137.323C142.708 137.413 143.275 137.542 143.843 137.71C144.411 137.865 144.888 138.168 145.275 138.62C145.675 139.071 145.875 139.671 145.875 140.42C145.875 141.323 145.508 142.071 144.772 142.665C144.05 143.258 143.017 143.555 141.675 143.555Z" fill="#746E8C"/>
<g clip-path="url(#clip0)">
<path d="M30.9263 122.464L39.9989 121.484L49.0714 122.464L56.0954 132.097L39.9989 151.246L23.9023 132.097L30.9263 122.464Z" fill="#FDB300"/>
<path d="M30.4222 132.097L39.9989 151.246L23.9023 132.097H30.4222Z" fill="#EA6C00"/>
<path d="M49.5778 132.096L40.0011 151.245L56.0977 132.096H49.5778Z" fill="#EA6C00"/>
<path d="M30.4219 132.096H49.5751L39.9985 151.245L30.4219 132.096Z" fill="#FDAD00"/>
<path d="M39.9985 121.484L30.9259 122.464L30.4219 132.097L39.9985 121.484Z" fill="#FDD231"/>
<path d="M39.9976 121.484L49.0702 122.464L49.5742 132.097L39.9976 121.484Z" fill="#FDD231"/>
<path d="M56.0977 132.096L49.0737 122.463L49.5778 132.096H56.0977Z" fill="#FDAD00"/>
<path d="M23.9023 132.096L30.9262 122.463L30.4222 132.096H23.9023Z" fill="#FDAD00"/>
<path d="M39.9985 121.484L30.4219 132.097H49.5751L39.9985 121.484Z" fill="#FEEEB7"/>
</g>
<rect x="0.515625" y="192.452" width="420.968" height="79.8387" rx="8" fill="white"/>
<path d="M73.16 232.4C73.16 230.296 73.7987 228.58 75.0762 227.251C76.3665 225.922 78.0181 225.258 80.031 225.258C81.7471 225.258 83.2052 225.735 84.4052 226.69C85.6052 227.645 86.3471 228.935 86.631 230.561H84.1342C83.902 229.606 83.4181 228.858 82.6826 228.316C81.96 227.774 81.0762 227.503 80.031 227.503C78.6633 227.503 77.5858 227.948 76.7987 228.838C76.0245 229.716 75.6374 230.903 75.6374 232.4C75.6374 233.896 76.0245 235.09 76.7987 235.98C77.5858 236.871 78.6633 237.316 80.031 237.316C81.0762 237.316 81.96 237.045 82.6826 236.503C83.4181 235.961 83.902 235.213 84.1342 234.258H86.631C86.3471 235.884 85.6052 237.174 84.4052 238.129C83.2052 239.084 81.7471 239.561 80.031 239.561C78.0181 239.561 76.3665 238.896 75.0762 237.567C73.7987 236.238 73.16 234.516 73.16 232.4ZM95.2496 235.032V229.245H97.5529V239.29H95.4238V237.993C95.1916 238.432 94.8109 238.8 94.2819 239.096C93.7658 239.38 93.1271 239.522 92.3658 239.522C91.1787 239.522 90.2626 239.167 89.6174 238.458C88.9851 237.735 88.669 236.774 88.669 235.574V229.245H90.9722V235.264C90.9722 236.787 91.6238 237.548 92.9271 237.548C93.6496 237.548 94.2174 237.335 94.6303 236.909C95.0432 236.471 95.2496 235.845 95.2496 235.032ZM103.778 239.522C102.398 239.522 101.359 239.2 100.662 238.555C99.9656 237.909 99.5849 237.084 99.5204 236.077H101.746C101.772 236.542 101.972 236.916 102.346 237.2C102.72 237.484 103.243 237.626 103.914 237.626C104.508 237.626 104.966 237.522 105.288 237.316C105.611 237.109 105.772 236.832 105.772 236.484C105.772 236.096 105.572 235.813 105.172 235.632C104.785 235.438 104.308 235.296 103.74 235.206C103.172 235.116 102.604 235 102.037 234.858C101.469 234.703 100.985 234.406 100.585 233.967C100.198 233.529 100.004 232.929 100.004 232.167C100.004 231.29 100.366 230.548 101.088 229.942C101.824 229.322 102.791 229.013 103.991 229.013C104.675 229.013 105.275 229.122 105.791 229.342C106.32 229.548 106.727 229.826 107.011 230.174C107.308 230.522 107.527 230.877 107.669 231.238C107.824 231.6 107.914 231.967 107.94 232.342H105.733C105.695 231.942 105.52 231.6 105.211 231.316C104.914 231.032 104.488 230.89 103.933 230.89C103.378 230.89 102.953 231 102.656 231.219C102.359 231.426 102.211 231.716 102.211 232.09C102.211 232.438 102.404 232.703 102.791 232.884C103.191 233.064 103.675 233.2 104.243 233.29C104.811 233.38 105.378 233.509 105.946 233.677C106.514 233.832 106.991 234.135 107.378 234.587C107.778 235.038 107.978 235.638 107.978 236.387C107.978 237.29 107.611 238.038 106.875 238.632C106.153 239.226 105.12 239.522 103.778 239.522ZM114.558 237.238V239.232C114.274 239.309 113.874 239.348 113.358 239.348C111.397 239.348 110.416 238.361 110.416 236.387V231.084H108.887V229.245H110.416V226.632H112.72V229.245H114.597V231.084H112.72V236.155C112.72 236.942 113.094 237.335 113.842 237.335L114.558 237.238ZM120.778 239.522C119.229 239.522 117.971 239.013 117.003 237.993C116.049 236.974 115.571 235.735 115.571 234.277C115.571 232.819 116.049 231.58 117.003 230.561C117.971 229.529 119.229 229.013 120.778 229.013C122.339 229.013 123.597 229.529 124.552 230.561C125.52 231.58 126.003 232.819 126.003 234.277C126.003 235.735 125.52 236.974 124.552 237.993C123.597 239.013 122.339 239.522 120.778 239.522ZM117.874 234.277C117.874 235.232 118.145 236.006 118.687 236.6C119.242 237.193 119.939 237.49 120.778 237.49C121.629 237.49 122.326 237.193 122.868 236.6C123.423 236.006 123.7 235.232 123.7 234.277C123.7 233.309 123.423 232.529 122.868 231.935C122.326 231.342 121.629 231.045 120.778 231.045C119.939 231.045 119.242 231.342 118.687 231.935C118.145 232.529 117.874 233.309 117.874 234.277ZM136.885 233.522V239.29H134.582V233.271C134.582 231.748 133.95 230.987 132.685 230.987C132.002 230.987 131.453 231.206 131.04 231.645C130.64 232.084 130.44 232.684 130.44 233.445V239.29H128.137V229.245H130.266V230.58C130.511 230.129 130.885 229.755 131.389 229.458C131.892 229.161 132.518 229.013 133.266 229.013C134.66 229.013 135.666 229.542 136.285 230.6C137.137 229.542 138.272 229.013 139.692 229.013C140.866 229.013 141.769 229.38 142.402 230.116C143.034 230.838 143.35 231.793 143.35 232.98V239.29H141.047V233.271C141.047 231.748 140.414 230.987 139.15 230.987C138.453 230.987 137.898 231.213 137.485 231.664C137.085 232.103 136.885 232.722 136.885 233.522ZM155.288 234.935H147.643C147.733 235.735 148.024 236.374 148.514 236.851C149.004 237.316 149.649 237.548 150.449 237.548C150.978 237.548 151.456 237.419 151.882 237.161C152.307 236.903 152.611 236.555 152.791 236.116H155.114C154.804 237.135 154.224 237.961 153.372 238.593C152.533 239.213 151.54 239.522 150.391 239.522C148.895 239.522 147.682 239.026 146.753 238.032C145.836 237.038 145.378 235.78 145.378 234.258C145.378 232.774 145.843 231.529 146.772 230.522C147.701 229.516 148.901 229.013 150.372 229.013C151.843 229.013 153.03 229.509 153.933 230.503C154.849 231.484 155.307 232.722 155.307 234.219L155.288 234.935ZM150.372 230.89C149.649 230.89 149.049 231.103 148.572 231.529C148.095 231.955 147.798 232.522 147.682 233.232H153.024C152.92 232.522 152.636 231.955 152.172 231.529C151.707 231.103 151.107 230.89 150.372 230.89ZM162.834 229.167V231.316C162.654 231.29 162.479 231.277 162.312 231.277C160.583 231.277 159.718 232.206 159.718 234.064V239.29H157.415V229.245H159.544V230.638C160.112 229.645 161.099 229.148 162.505 229.148L162.834 229.167ZM169.937 229.245V228.18C169.937 227.045 170.227 226.193 170.808 225.626C171.389 225.058 172.182 224.774 173.189 224.774L173.963 224.832V226.864C173.885 226.838 173.744 226.826 173.537 226.826C173.073 226.826 172.737 226.942 172.531 227.174C172.337 227.393 172.24 227.774 172.24 228.316V229.245H174.021V231.084H172.24V239.29H169.937V231.084H168.331V229.245H169.937ZM184.793 234.935H177.148C177.238 235.735 177.528 236.374 178.019 236.851C178.509 237.316 179.154 237.548 179.954 237.548C180.483 237.548 180.961 237.419 181.386 237.161C181.812 236.903 182.115 236.555 182.296 236.116H184.619C184.309 237.135 183.728 237.961 182.877 238.593C182.038 239.213 181.044 239.522 179.896 239.522C178.399 239.522 177.186 239.026 176.257 238.032C175.341 237.038 174.883 235.78 174.883 234.258C174.883 232.774 175.348 231.529 176.277 230.522C177.206 229.516 178.406 229.013 179.877 229.013C181.348 229.013 182.535 229.509 183.438 230.503C184.354 231.484 184.812 232.722 184.812 234.219L184.793 234.935ZM179.877 230.89C179.154 230.89 178.554 231.103 178.077 231.529C177.599 231.955 177.303 232.522 177.186 233.232H182.528C182.425 232.522 182.141 231.955 181.677 231.529C181.212 231.103 180.612 230.89 179.877 230.89ZM196.171 234.935H188.526C188.617 235.735 188.907 236.374 189.397 236.851C189.888 237.316 190.533 237.548 191.333 237.548C191.862 237.548 192.339 237.419 192.765 237.161C193.191 236.903 193.494 236.555 193.675 236.116H195.997C195.688 237.135 195.107 237.961 194.255 238.593C193.417 239.213 192.423 239.522 191.275 239.522C189.778 239.522 188.565 239.026 187.636 238.032C186.72 237.038 186.262 235.78 186.262 234.258C186.262 232.774 186.726 231.529 187.655 230.522C188.584 229.516 189.784 229.013 191.255 229.013C192.726 229.013 193.913 229.509 194.817 230.503C195.733 231.484 196.191 232.722 196.191 234.219L196.171 234.935ZM191.255 230.89C190.533 230.89 189.933 231.103 189.455 231.529C188.978 231.955 188.681 232.522 188.565 233.232H193.907C193.804 232.522 193.52 231.955 193.055 231.529C192.591 231.103 191.991 230.89 191.255 230.89ZM205.498 230.561V224.774H207.802V239.29H205.672V237.858C204.989 238.967 203.86 239.522 202.285 239.522C200.853 239.522 199.718 239.026 198.879 238.032C198.053 237.026 197.64 235.774 197.64 234.277C197.64 232.78 198.053 231.529 198.879 230.522C199.718 229.516 200.853 229.013 202.285 229.013C203.743 229.013 204.814 229.529 205.498 230.561ZM205.595 234.277C205.595 233.335 205.337 232.561 204.821 231.955C204.318 231.348 203.634 231.045 202.769 231.045C201.918 231.045 201.234 231.348 200.718 231.955C200.202 232.561 199.943 233.335 199.943 234.277C199.943 235.193 200.202 235.961 200.718 236.58C201.234 237.187 201.918 237.49 202.769 237.49C203.634 237.49 204.318 237.187 204.821 236.58C205.337 235.974 205.595 235.206 205.595 234.277ZM212.906 230.561C213.59 229.529 214.661 229.013 216.119 229.013C217.564 229.013 218.7 229.516 219.526 230.522C220.364 231.529 220.784 232.78 220.784 234.277C220.784 235.774 220.364 237.026 219.526 238.032C218.7 239.026 217.564 239.522 216.119 239.522C214.558 239.522 213.429 238.967 212.732 237.858V239.29H210.603V224.774H212.906V230.561ZM212.829 234.277C212.829 235.206 213.08 235.974 213.584 236.58C214.1 237.187 214.79 237.49 215.655 237.49C216.506 237.49 217.19 237.187 217.706 236.58C218.222 235.961 218.48 235.193 218.48 234.277C218.48 233.335 218.222 232.561 217.706 231.955C217.19 231.348 216.506 231.045 215.655 231.045C214.79 231.045 214.1 231.348 213.584 231.955C213.08 232.561 212.829 233.335 212.829 234.277ZM229.101 234.567L226.43 234.974C225.179 235.167 224.553 235.645 224.553 236.406C224.553 237.284 225.146 237.722 226.333 237.722C227.224 237.722 227.908 237.484 228.385 237.006C228.863 236.529 229.101 235.929 229.101 235.206V234.567ZM225.869 239.522C224.682 239.522 223.798 239.245 223.217 238.69C222.637 238.135 222.346 237.4 222.346 236.484C222.346 234.729 223.63 233.671 226.198 233.309L229.101 232.903V232.748C229.101 231.522 228.385 230.909 226.953 230.909C225.701 230.909 224.992 231.406 224.824 232.4H222.579C222.682 231.419 223.088 230.613 223.798 229.98C224.521 229.335 225.592 229.013 227.011 229.013C228.443 229.013 229.521 229.342 230.243 230C230.979 230.658 231.346 231.58 231.346 232.767V237.393C231.346 238.206 231.443 238.838 231.637 239.29H229.45C229.437 239.29 229.417 239.245 229.392 239.155C229.379 239.051 229.359 238.89 229.333 238.671C229.321 238.451 229.314 238.219 229.314 237.974C228.63 239.006 227.482 239.522 225.869 239.522ZM233.42 234.277C233.42 232.793 233.891 231.548 234.833 230.542C235.775 229.522 236.975 229.013 238.433 229.013C239.814 229.013 240.911 229.406 241.723 230.193C242.549 230.967 243.04 231.864 243.194 232.884H240.833C240.691 232.329 240.401 231.884 239.962 231.548C239.536 231.213 239.02 231.045 238.414 231.045C237.601 231.045 236.949 231.348 236.459 231.955C235.969 232.548 235.723 233.322 235.723 234.277C235.723 235.232 235.969 236.006 236.459 236.6C236.949 237.193 237.601 237.49 238.414 237.49C239.02 237.49 239.536 237.322 239.962 236.987C240.401 236.651 240.691 236.206 240.833 235.651H243.194C243.04 236.671 242.549 237.574 241.723 238.361C240.911 239.135 239.814 239.522 238.433 239.522C236.975 239.522 235.775 239.019 234.833 238.013C233.891 236.993 233.42 235.748 233.42 234.277ZM251.735 229.245H254.638L250.748 233.484L254.929 239.29H252.18L249.219 234.993L247.458 236.89V239.29H245.154V224.774H247.458V234.142L251.735 229.245Z" fill="#746E8C"/>
<path d="M52.1282 215.839H27.9346C25.7078 215.839 23.9023 217.644 23.9023 219.871V244.065C23.9023 246.291 25.7078 248.097 27.9346 248.097H52.1282C54.355 248.097 56.1604 246.291 56.1604 244.065V219.871C56.1604 217.644 54.355 215.839 52.1282 215.839ZM44.3318 221.753C44.3318 221.159 44.8136 220.678 45.4074 220.678C46.0011 220.678 46.483 221.159 46.483 221.753V236.119C46.483 236.713 46.0011 237.195 45.4074 237.195C44.8136 237.195 44.3318 236.713 44.3318 236.119V221.753ZM38.9558 221.209C38.9558 220.615 39.4376 220.133 40.0314 220.133C40.6251 220.133 41.107 220.615 41.107 221.209V236.801C41.107 237.394 40.6251 237.876 40.0314 237.876C39.4376 237.876 38.9558 237.394 38.9558 236.801V221.209ZM33.5798 221.753C33.5798 221.159 34.0616 220.678 34.6554 220.678C35.2491 220.678 35.73 221.159 35.73 221.753V236.119C35.73 236.713 35.2491 237.195 34.6554 237.195C34.0616 237.195 33.5798 236.713 33.5798 236.119V221.753ZM28.2038 223.903C28.2038 223.31 28.6846 222.828 29.2784 222.828C29.8721 222.828 30.354 223.31 30.354 223.903V233.575C30.354 234.169 29.8721 234.65 29.2784 234.65C28.6846 234.65 28.2038 234.169 28.2038 233.575V223.903ZM51.484 240.305C51.3187 240.448 47.3348 243.789 40.0314 243.789C32.7279 243.789 28.7461 240.448 28.5788 240.305C28.1281 239.919 28.0747 239.24 28.4618 238.788C28.8469 238.339 29.5243 238.285 29.9749 238.671C30.0374 238.723 33.5949 241.639 40.0304 241.639C46.5465 241.639 50.0485 238.702 50.0828 238.673C50.5324 238.285 51.2128 238.338 51.5979 238.788C51.987 239.24 51.9346 239.919 51.484 240.305ZM51.859 233.575C51.859 234.169 51.3771 234.65 50.7834 234.65C50.1896 234.65 49.7088 234.169 49.7088 233.575V223.903C49.7088 223.31 50.1896 222.828 50.7834 222.828C51.3771 222.828 51.859 223.31 51.859 223.903V233.575Z" fill="#286EFA"/>
<rect x="0.515625" y="288.419" width="420.968" height="79.8387" rx="8" fill="white"/>
<path d="M74.7665 335.258H72.2891L77.6116 321.516H80.1084L85.4504 335.258H82.8955L81.9084 332.606H75.7536L74.7665 335.258ZM78.8504 324.419H78.8116L76.5278 330.477H81.1342L78.8504 324.419ZM89.412 327.671H92.7798C93.5282 327.671 94.083 327.497 94.4443 327.148C94.8185 326.8 95.0056 326.316 95.0056 325.697C95.0056 325.077 94.8185 324.587 94.4443 324.226C94.0701 323.864 93.5153 323.684 92.7798 323.684H89.412V327.671ZM89.412 329.838V335.258H87.0701V321.516H92.7604C94.3217 321.516 95.4766 321.903 96.225 322.677C96.9862 323.438 97.3669 324.445 97.3669 325.697C97.3669 326.935 96.9798 327.935 96.2056 328.697C95.4314 329.458 94.283 329.838 92.7604 329.838H89.412ZM101.849 321.516V335.258H99.5071V321.516H101.849ZM119.149 330.903H111.504C111.594 331.703 111.884 332.342 112.375 332.819C112.865 333.284 113.51 333.516 114.31 333.516C114.839 333.516 115.317 333.387 115.742 333.129C116.168 332.871 116.472 332.522 116.652 332.084H118.975C118.665 333.103 118.084 333.929 117.233 334.561C116.394 335.18 115.401 335.49 114.252 335.49C112.755 335.49 111.542 334.993 110.613 334C109.697 333.006 109.239 331.748 109.239 330.226C109.239 328.742 109.704 327.497 110.633 326.49C111.562 325.484 112.762 324.98 114.233 324.98C115.704 324.98 116.891 325.477 117.794 326.471C118.71 327.451 119.168 328.69 119.168 330.187L119.149 330.903ZM114.233 326.858C113.51 326.858 112.91 327.071 112.433 327.497C111.955 327.922 111.659 328.49 111.542 329.2H116.884C116.781 328.49 116.497 327.922 116.033 327.497C115.568 327.071 114.968 326.858 114.233 326.858ZM123.405 325.213V326.548C123.637 326.109 124.018 325.742 124.547 325.445C125.089 325.135 125.74 324.98 126.502 324.98C127.689 324.98 128.605 325.342 129.25 326.064C129.908 326.787 130.237 327.748 130.237 328.948V335.258H127.934V329.238C127.934 328.529 127.766 327.974 127.431 327.574C127.108 327.161 126.611 326.955 125.94 326.955C125.205 326.955 124.624 327.174 124.198 327.613C123.786 328.051 123.579 328.658 123.579 329.432V335.258H121.276V325.213H123.405ZM140.138 326.529V320.742H142.441V335.258H140.312V333.826C139.628 334.935 138.499 335.49 136.925 335.49C135.493 335.49 134.357 334.993 133.519 334C132.693 332.993 132.28 331.742 132.28 330.245C132.28 328.748 132.693 327.497 133.519 326.49C134.357 325.484 135.493 324.98 136.925 324.98C138.383 324.98 139.454 325.497 140.138 326.529ZM140.235 330.245C140.235 329.303 139.977 328.529 139.46 327.922C138.957 327.316 138.273 327.013 137.409 327.013C136.557 327.013 135.873 327.316 135.357 327.922C134.841 328.529 134.583 329.303 134.583 330.245C134.583 331.161 134.841 331.929 135.357 332.548C135.873 333.155 136.557 333.458 137.409 333.458C138.273 333.458 138.957 333.155 139.46 332.548C139.977 331.942 140.235 331.174 140.235 330.245ZM147.546 333.942V339.284H145.243V325.213H147.372V326.645C148.081 325.535 149.21 324.98 150.759 324.98C152.204 324.98 153.339 325.484 154.165 326.49C155.004 327.497 155.423 328.748 155.423 330.245C155.423 331.742 155.004 332.993 154.165 334C153.339 334.993 152.204 335.49 150.759 335.49C149.288 335.49 148.217 334.974 147.546 333.942ZM147.468 330.245C147.468 331.174 147.72 331.942 148.223 332.548C148.739 333.155 149.43 333.458 150.294 333.458C151.146 333.458 151.83 333.155 152.346 332.548C152.862 331.929 153.12 331.161 153.12 330.245C153.12 329.303 152.862 328.522 152.346 327.903C151.83 327.284 151.146 326.974 150.294 326.974C149.43 326.974 148.739 327.284 148.223 327.903C147.72 328.509 147.468 329.29 147.468 330.245ZM162.096 335.49C160.547 335.49 159.289 334.98 158.321 333.961C157.367 332.942 156.889 331.703 156.889 330.245C156.889 328.787 157.367 327.548 158.321 326.529C159.289 325.497 160.547 324.98 162.096 324.98C163.657 324.98 164.915 325.497 165.87 326.529C166.838 327.548 167.321 328.787 167.321 330.245C167.321 331.703 166.838 332.942 165.87 333.961C164.915 334.98 163.657 335.49 162.096 335.49ZM159.192 330.245C159.192 331.2 159.463 331.974 160.005 332.567C160.56 333.161 161.257 333.458 162.096 333.458C162.947 333.458 163.644 333.161 164.186 332.567C164.741 331.974 165.018 331.2 165.018 330.245C165.018 329.277 164.741 328.497 164.186 327.903C163.644 327.309 162.947 327.013 162.096 327.013C161.257 327.013 160.56 327.309 160.005 327.903C159.463 328.497 159.192 329.277 159.192 330.245ZM170.616 323.529C170.191 323.529 169.842 323.4 169.571 323.142C169.3 322.871 169.165 322.529 169.165 322.116C169.165 321.69 169.3 321.342 169.571 321.071C169.842 320.8 170.191 320.664 170.616 320.664C171.029 320.664 171.371 320.8 171.642 321.071C171.913 321.342 172.049 321.69 172.049 322.116C172.049 322.529 171.913 322.871 171.642 323.142C171.371 323.4 171.029 323.529 170.616 323.529ZM169.455 335.258V325.213H171.758V335.258H169.455ZM176.669 325.213V326.548C176.901 326.109 177.281 325.742 177.81 325.445C178.352 325.135 179.004 324.98 179.765 324.98C180.952 324.98 181.869 325.342 182.514 326.064C183.172 326.787 183.501 327.748 183.501 328.948V335.258H181.198V329.238C181.198 328.529 181.03 327.974 180.694 327.574C180.372 327.161 179.875 326.955 179.204 326.955C178.469 326.955 177.888 327.174 177.462 327.613C177.049 328.051 176.843 328.658 176.843 329.432V335.258H174.539V325.213H176.669ZM190.711 333.206V335.2C190.427 335.277 190.027 335.316 189.511 335.316C187.55 335.316 186.569 334.329 186.569 332.355V327.051H185.04V325.213H186.569V322.6H188.872V325.213H190.75V327.051H188.872V332.122C188.872 332.909 189.247 333.303 189.995 333.303L190.711 333.206ZM196.035 335.49C194.655 335.49 193.616 335.167 192.919 334.522C192.222 333.877 191.842 333.051 191.777 332.045H194.003C194.029 332.509 194.229 332.884 194.603 333.167C194.977 333.451 195.5 333.593 196.171 333.593C196.764 333.593 197.222 333.49 197.545 333.284C197.868 333.077 198.029 332.8 198.029 332.451C198.029 332.064 197.829 331.78 197.429 331.6C197.042 331.406 196.564 331.264 195.997 331.174C195.429 331.084 194.861 330.967 194.293 330.826C193.726 330.671 193.242 330.374 192.842 329.935C192.455 329.497 192.261 328.897 192.261 328.135C192.261 327.258 192.622 326.516 193.345 325.909C194.08 325.29 195.048 324.98 196.248 324.98C196.932 324.98 197.532 325.09 198.048 325.309C198.577 325.516 198.984 325.793 199.268 326.142C199.564 326.49 199.784 326.845 199.926 327.206C200.08 327.567 200.171 327.935 200.197 328.309H197.99C197.951 327.909 197.777 327.567 197.468 327.284C197.171 327 196.745 326.858 196.19 326.858C195.635 326.858 195.209 326.967 194.913 327.187C194.616 327.393 194.468 327.684 194.468 328.058C194.468 328.406 194.661 328.671 195.048 328.851C195.448 329.032 195.932 329.167 196.5 329.258C197.068 329.348 197.635 329.477 198.203 329.645C198.771 329.8 199.248 330.103 199.635 330.555C200.035 331.006 200.235 331.606 200.235 332.355C200.235 333.258 199.868 334.006 199.132 334.6C198.409 335.193 197.377 335.49 196.035 335.49Z" fill="#746E8C"/>
<path d="M56.1017 330.311L54.2947 324.79L50.7191 313.839C50.6779 313.717 50.5991 313.611 50.494 313.536C50.3888 313.461 50.2624 313.42 50.1328 313.42C50.0032 313.42 49.8769 313.461 49.7717 313.536C49.6665 313.611 49.5878 313.717 49.5466 313.839L45.9709 324.783H34.0906L30.5149 313.839C30.474 313.717 30.3954 313.611 30.2903 313.535C30.1852 313.46 30.0588 313.419 29.9292 313.419C29.7996 313.419 29.6732 313.46 29.5681 313.535C29.4629 313.611 29.3843 313.717 29.3434 313.839L25.7735 324.783L23.9666 330.311C23.8863 330.556 23.8861 330.82 23.9661 331.066C24.0461 331.311 24.2021 331.525 24.4119 331.677L40.0322 342.96L55.6497 331.677C55.8604 331.526 56.0176 331.312 56.0987 331.067C56.1799 330.821 56.1809 330.557 56.1017 330.311Z" fill="#FC6D26"/>
<path d="M40.0306 342.952L45.9703 324.782H34.0938L40.0306 342.952Z" fill="#E24329"/>
<path d="M40.0322 342.952L34.0906 324.782H25.7773L40.0322 342.952Z" fill="#FC6D26"/>
<path d="M25.7696 324.788L23.9627 330.308C23.8824 330.554 23.8822 330.818 23.9622 331.064C24.0422 331.309 24.1982 331.523 24.408 331.675L40.0312 342.96L25.7696 324.788Z" fill="#FCA326"/>
<path d="M25.7734 324.788H34.0972L30.5149 313.845C30.4737 313.723 30.395 313.617 30.2898 313.542C30.1846 313.466 30.0582 313.426 29.9286 313.426C29.799 313.426 29.6727 313.466 29.5675 313.542C29.4623 313.617 29.3836 313.723 29.3424 313.845L25.7734 324.788Z" fill="#E24329"/>
<path d="M40.0312 342.952L45.9709 324.782H54.2976L40.0312 342.952Z" fill="#FC6D26"/>
<path d="M54.2919 324.788L56.0988 330.308C56.1795 330.554 56.1799 330.818 56.0999 331.064C56.0199 331.309 55.8636 331.523 55.6535 331.675L40.0312 342.951L54.288 324.788H54.2919Z" fill="#FCA326"/>
<path d="M54.2955 324.788H45.9727L49.5483 313.845C49.5892 313.723 49.6678 313.616 49.773 313.541C49.8781 313.465 50.0044 313.425 50.1341 313.425C50.2637 313.425 50.39 313.465 50.4952 313.541C50.6003 313.616 50.6789 313.723 50.7198 313.845L54.2955 324.788Z" fill="#E24329"/>
<defs>
<clipPath id="clip0">
<rect width="32.2581" height="29.7767" fill="white" transform="translate(23.9023 121.484)"/>
</clipPath>
</defs>
</svg>
