<svg width="560" height="333" viewBox="0 0 560 333" fill="none" xmlns="http://www.w3.org/2000/svg">
<rect y="116.003" width="560" height="100" rx="8" fill="white"/>
<circle cx="48" cy="166.003" r="15.1887" stroke="#BCB8CE" stroke-width="1.62258"/>
<path d="M48 155.336V166.003L54.6667 174.003C57.8667 172.403 58.6667 168.003 58.6667 166.003C58.6667 158.003 51.5556 155.559 48 155.336Z" fill="#BCB8CE"/>
<path d="M90.24 170.103C91.2133 170.103 91.9667 169.937 92.5 169.603C93.0333 169.257 93.3 168.763 93.3 168.123C93.3 167.657 93.1533 167.277 92.86 166.983C92.5667 166.69 92.1867 166.47 91.72 166.323C91.2533 166.177 90.74 166.05 90.18 165.943C89.62 165.823 89.0533 165.683 88.48 165.523C87.92 165.35 87.4067 165.13 86.94 164.863C86.4733 164.597 86.0933 164.197 85.8 163.663C85.5067 163.13 85.36 162.477 85.36 161.703C85.36 160.53 85.82 159.537 86.74 158.723C87.6733 157.91 88.9067 157.503 90.44 157.503C92.0533 157.503 93.3067 157.943 94.2 158.823C95.1067 159.69 95.5733 160.817 95.6 162.203H93.22C93.2067 161.47 92.96 160.87 92.48 160.403C92 159.923 91.32 159.683 90.44 159.683C89.6 159.683 88.94 159.857 88.46 160.203C87.9933 160.537 87.76 161.017 87.76 161.643C87.76 162.057 87.9067 162.403 88.2 162.683C88.4933 162.95 88.8733 163.157 89.34 163.303C89.82 163.437 90.34 163.563 90.9 163.683C91.4733 163.79 92.04 163.937 92.6 164.123C93.1733 164.297 93.6933 164.53 94.16 164.823C94.64 165.103 95.0267 165.517 95.32 166.063C95.6133 166.597 95.76 167.25 95.76 168.023C95.76 169.317 95.2467 170.35 94.22 171.123C93.1933 171.897 91.8267 172.283 90.12 172.283C88.3733 172.283 87.06 171.823 86.18 170.903C85.3 169.983 84.84 168.87 84.8 167.563H87.2C87.2533 168.35 87.54 168.97 88.06 169.423C88.58 169.877 89.3067 170.103 90.24 170.103ZM102.815 169.883V171.943C102.522 172.023 102.108 172.063 101.575 172.063C99.5482 172.063 98.5348 171.043 98.5348 169.003V163.523H96.9548V161.623H98.5348V158.923H100.915V161.623H102.855V163.523H100.915V168.763C100.915 169.577 101.302 169.983 102.075 169.983L102.815 169.883ZM111.156 167.123L108.396 167.543C107.103 167.743 106.456 168.237 106.456 169.023C106.456 169.93 107.07 170.383 108.296 170.383C109.216 170.383 109.923 170.137 110.416 169.643C110.91 169.15 111.156 168.53 111.156 167.783V167.123ZM107.816 172.243C106.59 172.243 105.676 171.957 105.076 171.383C104.476 170.81 104.176 170.05 104.176 169.103C104.176 167.29 105.503 166.197 108.156 165.823L111.156 165.403V165.243C111.156 163.977 110.416 163.343 108.936 163.343C107.643 163.343 106.91 163.857 106.736 164.883H104.416C104.523 163.87 104.943 163.037 105.676 162.383C106.423 161.717 107.53 161.383 108.996 161.383C110.476 161.383 111.59 161.723 112.336 162.403C113.096 163.083 113.476 164.037 113.476 165.263V170.043C113.476 170.883 113.576 171.537 113.776 172.003H111.516C111.503 172.003 111.483 171.957 111.456 171.863C111.443 171.757 111.423 171.59 111.396 171.363C111.383 171.137 111.376 170.897 111.376 170.643C110.67 171.71 109.483 172.243 107.816 172.243ZM121.899 161.543V163.763C121.713 163.737 121.533 163.723 121.359 163.723C119.573 163.723 118.679 164.683 118.679 166.603V172.003H116.299V161.623H118.499V163.063C119.086 162.037 120.106 161.523 121.559 161.523L121.899 161.543ZM128.284 169.883V171.943C127.99 172.023 127.577 172.063 127.044 172.063C125.017 172.063 124.004 171.043 124.004 169.003V163.523H122.424V161.623H124.004V158.923H126.384V161.623H128.324V163.523H126.384V168.763C126.384 169.577 126.77 169.983 127.544 169.983L128.284 169.883ZM137.62 161.623V163.003C137.86 162.55 138.254 162.17 138.8 161.863C139.36 161.543 140.034 161.383 140.82 161.383C142.047 161.383 142.994 161.757 143.66 162.503C144.34 163.25 144.68 164.243 144.68 165.483V172.003H142.3V165.783C142.3 165.05 142.127 164.477 141.78 164.063C141.447 163.637 140.934 163.423 140.24 163.423C139.48 163.423 138.88 163.65 138.44 164.103C138.014 164.557 137.8 165.183 137.8 165.983V172.003H135.42V161.623H137.62ZM157.031 167.503H149.131C149.225 168.33 149.525 168.99 150.031 169.483C150.538 169.963 151.205 170.203 152.031 170.203C152.578 170.203 153.071 170.07 153.511 169.803C153.951 169.537 154.265 169.177 154.451 168.723H156.851C156.531 169.777 155.931 170.63 155.051 171.283C154.185 171.923 153.158 172.243 151.971 172.243C150.425 172.243 149.171 171.73 148.211 170.703C147.265 169.677 146.791 168.377 146.791 166.803C146.791 165.27 147.271 163.983 148.231 162.943C149.191 161.903 150.431 161.383 151.951 161.383C153.471 161.383 154.698 161.897 155.631 162.923C156.578 163.937 157.051 165.217 157.051 166.763L157.031 167.503ZM151.951 163.323C151.205 163.323 150.585 163.543 150.091 163.983C149.598 164.423 149.291 165.01 149.171 165.743H154.691C154.585 165.01 154.291 164.423 153.811 163.983C153.331 163.543 152.711 163.323 151.951 163.323ZM168.18 172.003L165.84 164.883H165.82L163.46 172.003H161.2L157.58 161.623H160.04L162.36 169.063L164.74 161.623H166.94L169.3 169.083L171.64 161.623H174.06L170.44 172.003H168.18ZM189.968 166.043V172.003H187.588V165.783C187.588 164.21 186.935 163.423 185.628 163.423C184.922 163.423 184.355 163.65 183.928 164.103C183.515 164.557 183.308 165.177 183.308 165.963V172.003H180.928V161.623H183.128V163.003C183.382 162.537 183.768 162.15 184.288 161.843C184.808 161.537 185.455 161.383 186.228 161.383C187.668 161.383 188.708 161.93 189.348 163.023C190.228 161.93 191.402 161.383 192.868 161.383C194.082 161.383 195.015 161.763 195.668 162.523C196.322 163.27 196.648 164.257 196.648 165.483V172.003H194.268V165.783C194.268 164.21 193.615 163.423 192.308 163.423C191.588 163.423 191.015 163.657 190.588 164.123C190.175 164.577 189.968 165.217 189.968 166.043ZM205.824 167.123L203.064 167.543C201.771 167.743 201.124 168.237 201.124 169.023C201.124 169.93 201.738 170.383 202.964 170.383C203.884 170.383 204.591 170.137 205.084 169.643C205.578 169.15 205.824 168.53 205.824 167.783V167.123ZM202.484 172.243C201.258 172.243 200.344 171.957 199.744 171.383C199.144 170.81 198.844 170.05 198.844 169.103C198.844 167.29 200.171 166.197 202.824 165.823L205.824 165.403V165.243C205.824 163.977 205.084 163.343 203.604 163.343C202.311 163.343 201.578 163.857 201.404 164.883H199.084C199.191 163.87 199.611 163.037 200.344 162.383C201.091 161.717 202.198 161.383 203.664 161.383C205.144 161.383 206.258 161.723 207.004 162.403C207.764 163.083 208.144 164.037 208.144 165.263V170.043C208.144 170.883 208.244 171.537 208.444 172.003H206.184C206.171 172.003 206.151 171.957 206.124 171.863C206.111 171.757 206.091 171.59 206.064 171.363C206.051 171.137 206.044 170.897 206.044 170.643C205.338 171.71 204.151 172.243 202.484 172.243ZM216.567 161.543V163.763C216.381 163.737 216.201 163.723 216.027 163.723C214.241 163.723 213.347 164.683 213.347 166.603V172.003H210.967V161.623H213.167V163.063C213.754 162.037 214.774 161.523 216.227 161.523L216.567 161.543ZM225.092 161.623H228.092L224.072 166.003L228.392 172.003H225.552L222.492 167.563L220.672 169.523V172.003H218.292V157.003H220.672V166.683L225.092 161.623ZM238.926 167.503H231.026C231.119 168.33 231.419 168.99 231.926 169.483C232.432 169.963 233.099 170.203 233.926 170.203C234.472 170.203 234.966 170.07 235.406 169.803C235.846 169.537 236.159 169.177 236.346 168.723H238.746C238.426 169.777 237.826 170.63 236.946 171.283C236.079 171.923 235.052 172.243 233.866 172.243C232.319 172.243 231.066 171.73 230.106 170.703C229.159 169.677 228.686 168.377 228.686 166.803C228.686 165.27 229.166 163.983 230.126 162.943C231.086 161.903 232.326 161.383 233.846 161.383C235.366 161.383 236.592 161.897 237.526 162.923C238.472 163.937 238.946 165.217 238.946 166.763L238.926 167.503ZM233.846 163.323C233.099 163.323 232.479 163.543 231.986 163.983C231.492 164.423 231.186 165.01 231.066 165.743H236.586C236.479 165.01 236.186 164.423 235.706 163.983C235.226 163.543 234.606 163.323 233.846 163.323ZM245.784 169.883V171.943C245.49 172.023 245.077 172.063 244.544 172.063C242.517 172.063 241.504 171.043 241.504 169.003V163.523H239.924V161.623H241.504V158.923H243.884V161.623H245.824V163.523H243.884V168.763C243.884 169.577 244.27 169.983 245.044 169.983L245.784 169.883ZM248.925 159.883C248.485 159.883 248.125 159.75 247.845 159.483C247.565 159.203 247.425 158.85 247.425 158.423C247.425 157.983 247.565 157.623 247.845 157.343C248.125 157.063 248.485 156.923 248.925 156.923C249.352 156.923 249.705 157.063 249.985 157.343C250.265 157.623 250.405 157.983 250.405 158.423C250.405 158.85 250.265 159.203 249.985 159.483C249.705 159.75 249.352 159.883 248.925 159.883ZM247.725 172.003V161.623H250.105V172.003H247.725ZM255.179 161.623V163.003C255.419 162.55 255.812 162.17 256.359 161.863C256.919 161.543 257.592 161.383 258.379 161.383C259.606 161.383 260.552 161.757 261.219 162.503C261.899 163.25 262.239 164.243 262.239 165.483V172.003H259.859V165.783C259.859 165.05 259.686 164.477 259.339 164.063C259.006 163.637 258.492 163.423 257.799 163.423C257.039 163.423 256.439 163.65 255.999 164.103C255.572 164.557 255.359 165.183 255.359 165.983V172.003H252.979V161.623H255.179ZM272.59 163.103V161.623H274.79V171.563C274.79 172.977 274.35 174.13 273.47 175.023C272.603 175.93 271.39 176.383 269.83 176.383C268.403 176.383 267.283 176.017 266.47 175.283C265.67 174.55 265.203 173.71 265.07 172.763H267.45C267.743 173.817 268.55 174.343 269.87 174.343C270.67 174.343 271.29 174.117 271.73 173.663C272.183 173.223 272.41 172.63 272.41 171.883V170.263C271.717 171.33 270.623 171.863 269.13 171.863C267.69 171.863 266.53 171.363 265.65 170.363C264.783 169.35 264.35 168.103 264.35 166.623C264.35 165.143 264.783 163.903 265.65 162.903C266.53 161.89 267.69 161.383 269.13 161.383C270.717 161.383 271.87 161.957 272.59 163.103ZM272.51 166.623C272.51 165.703 272.243 164.95 271.71 164.363C271.177 163.777 270.477 163.483 269.61 163.483C268.757 163.483 268.063 163.777 267.53 164.363C266.997 164.95 266.73 165.703 266.73 166.623C266.73 167.53 266.997 168.283 267.53 168.883C268.063 169.47 268.757 169.763 269.61 169.763C270.477 169.763 271.177 169.47 271.71 168.883C272.243 168.283 272.51 167.53 272.51 166.623ZM282.104 166.823C282.104 165.29 282.59 164.003 283.564 162.963C284.537 161.91 285.777 161.383 287.284 161.383C288.71 161.383 289.844 161.79 290.684 162.603C291.537 163.403 292.044 164.33 292.204 165.383H289.764C289.617 164.81 289.317 164.35 288.864 164.003C288.424 163.657 287.89 163.483 287.264 163.483C286.424 163.483 285.75 163.797 285.244 164.423C284.737 165.037 284.484 165.837 284.484 166.823C284.484 167.81 284.737 168.61 285.244 169.223C285.75 169.837 286.424 170.143 287.264 170.143C287.89 170.143 288.424 169.97 288.864 169.623C289.317 169.277 289.617 168.817 289.764 168.243H292.204C292.044 169.297 291.537 170.23 290.684 171.043C289.844 171.843 288.71 172.243 287.284 172.243C285.777 172.243 284.537 171.723 283.564 170.683C282.59 169.63 282.104 168.343 282.104 166.823ZM300.512 167.123L297.752 167.543C296.459 167.743 295.812 168.237 295.812 169.023C295.812 169.93 296.425 170.383 297.652 170.383C298.572 170.383 299.279 170.137 299.772 169.643C300.265 169.15 300.512 168.53 300.512 167.783V167.123ZM297.172 172.243C295.945 172.243 295.032 171.957 294.432 171.383C293.832 170.81 293.532 170.05 293.532 169.103C293.532 167.29 294.859 166.197 297.512 165.823L300.512 165.403V165.243C300.512 163.977 299.772 163.343 298.292 163.343C296.999 163.343 296.265 163.857 296.092 164.883H293.772C293.879 163.87 294.299 163.037 295.032 162.383C295.779 161.717 296.885 161.383 298.352 161.383C299.832 161.383 300.945 161.723 301.692 162.403C302.452 163.083 302.832 164.037 302.832 165.263V170.043C302.832 170.883 302.932 171.537 303.132 172.003H300.872C300.859 172.003 300.839 171.957 300.812 171.863C300.799 171.757 300.779 171.59 300.752 171.363C300.739 171.137 300.732 170.897 300.732 170.643C300.025 171.71 298.839 172.243 297.172 172.243ZM314.695 166.043V172.003H312.315V165.783C312.315 164.21 311.662 163.423 310.355 163.423C309.648 163.423 309.082 163.65 308.655 164.103C308.242 164.557 308.035 165.177 308.035 165.963V172.003H305.655V161.623H307.855V163.003C308.108 162.537 308.495 162.15 309.015 161.843C309.535 161.537 310.182 161.383 310.955 161.383C312.395 161.383 313.435 161.93 314.075 163.023C314.955 161.93 316.128 161.383 317.595 161.383C318.808 161.383 319.742 161.763 320.395 162.523C321.048 163.27 321.375 164.257 321.375 165.483V172.003H318.995V165.783C318.995 164.21 318.342 163.423 317.035 163.423C316.315 163.423 315.742 163.657 315.315 164.123C314.902 164.577 314.695 165.217 314.695 166.043ZM326.531 170.643V176.163H324.151V161.623H326.351V163.103C327.084 161.957 328.251 161.383 329.851 161.383C331.344 161.383 332.518 161.903 333.371 162.943C334.238 163.983 334.671 165.277 334.671 166.823C334.671 168.37 334.238 169.663 333.371 170.703C332.518 171.73 331.344 172.243 329.851 172.243C328.331 172.243 327.224 171.71 326.531 170.643ZM326.451 166.823C326.451 167.783 326.711 168.577 327.231 169.203C327.764 169.83 328.478 170.143 329.371 170.143C330.251 170.143 330.958 169.83 331.491 169.203C332.024 168.563 332.291 167.77 332.291 166.823C332.291 165.85 332.024 165.043 331.491 164.403C330.958 163.763 330.251 163.443 329.371 163.443C328.478 163.443 327.764 163.763 327.231 164.403C326.711 165.03 326.451 165.837 326.451 166.823ZM343.266 167.123L340.506 167.543C339.212 167.743 338.566 168.237 338.566 169.023C338.566 169.93 339.179 170.383 340.406 170.383C341.326 170.383 342.032 170.137 342.526 169.643C343.019 169.15 343.266 168.53 343.266 167.783V167.123ZM339.926 172.243C338.699 172.243 337.786 171.957 337.186 171.383C336.586 170.81 336.286 170.05 336.286 169.103C336.286 167.29 337.612 166.197 340.266 165.823L343.266 165.403V165.243C343.266 163.977 342.526 163.343 341.046 163.343C339.752 163.343 339.019 163.857 338.846 164.883H336.526C336.632 163.87 337.052 163.037 337.786 162.383C338.532 161.717 339.639 161.383 341.106 161.383C342.586 161.383 343.699 161.723 344.446 162.403C345.206 163.083 345.586 164.037 345.586 165.263V170.043C345.586 170.883 345.686 171.537 345.886 172.003H343.626C343.612 172.003 343.592 171.957 343.566 171.863C343.552 171.757 343.532 171.59 343.506 171.363C343.492 171.137 343.486 170.897 343.486 170.643C342.779 171.71 341.592 172.243 339.926 172.243ZM349.609 159.883C349.169 159.883 348.809 159.75 348.529 159.483C348.249 159.203 348.109 158.85 348.109 158.423C348.109 157.983 348.249 157.623 348.529 157.343C348.809 157.063 349.169 156.923 349.609 156.923C350.035 156.923 350.389 157.063 350.669 157.343C350.949 157.623 351.089 157.983 351.089 158.423C351.089 158.85 350.949 159.203 350.669 159.483C350.389 159.75 350.035 159.883 349.609 159.883ZM348.409 172.003V161.623H350.789V172.003H348.409ZM361.223 163.103V161.623H363.423V171.563C363.423 172.977 362.983 174.13 362.103 175.023C361.236 175.93 360.023 176.383 358.463 176.383C357.036 176.383 355.916 176.017 355.103 175.283C354.303 174.55 353.836 173.71 353.703 172.763H356.083C356.376 173.817 357.183 174.343 358.503 174.343C359.303 174.343 359.923 174.117 360.363 173.663C360.816 173.223 361.043 172.63 361.043 171.883V170.263C360.349 171.33 359.256 171.863 357.763 171.863C356.323 171.863 355.163 171.363 354.283 170.363C353.416 169.35 352.983 168.103 352.983 166.623C352.983 165.143 353.416 163.903 354.283 162.903C355.163 161.89 356.323 161.383 357.763 161.383C359.349 161.383 360.503 161.957 361.223 163.103ZM361.143 166.623C361.143 165.703 360.876 164.95 360.343 164.363C359.809 163.777 359.109 163.483 358.243 163.483C357.389 163.483 356.696 163.777 356.163 164.363C355.629 164.95 355.363 165.703 355.363 166.623C355.363 167.53 355.629 168.283 356.163 168.883C356.696 169.47 357.389 169.763 358.243 169.763C359.109 169.763 359.809 169.47 360.343 168.883C360.876 168.283 361.143 167.53 361.143 166.623ZM368.421 161.623V163.003C368.661 162.55 369.055 162.17 369.601 161.863C370.161 161.543 370.835 161.383 371.621 161.383C372.848 161.383 373.795 161.757 374.461 162.503C375.141 163.25 375.481 164.243 375.481 165.483V172.003H373.101V165.783C373.101 165.05 372.928 164.477 372.581 164.063C372.248 163.637 371.735 163.423 371.041 163.423C370.281 163.423 369.681 163.65 369.241 164.103C368.815 164.557 368.601 165.183 368.601 165.983V172.003H366.221V161.623H368.421Z" fill="#746E8C"/>
<rect opacity="0.2" x="424" y="150.003" width="104" height="32" rx="10.2763" fill="#F2C94C"/>
<path d="M440.784 172.131C442.608 172.131 444.704 171.075 444.704 168.723C444.704 166.531 443.136 166.003 441.184 165.235C439.808 164.707 439.04 164.419 439.056 163.587C439.072 162.739 439.776 162.259 440.656 162.259C441.424 162.259 442.336 162.659 443.264 163.427L444.416 161.907C443.264 160.995 442 160.515 440.656 160.515C438.688 160.515 437.056 161.907 437.056 163.683C437.056 165.763 438.768 166.531 440.496 167.139C441.936 167.651 442.688 167.971 442.688 168.963C442.688 169.795 442.048 170.339 440.8 170.339C439.824 170.339 438.704 169.843 437.888 168.851L436.672 170.339C437.856 171.571 439.328 172.131 440.784 172.131ZM446.621 172.003H448.413V168.035C448.413 166.499 449.213 165.699 450.509 165.699C451.581 165.699 452.205 166.243 452.205 167.795V172.003H453.997V167.331C453.997 164.995 452.797 164.083 451.085 164.083C450.029 164.083 449.085 164.451 448.429 165.171H448.413V160.227H446.621V172.003ZM459.816 172.131C462.216 172.131 463.912 170.483 463.912 168.115C463.912 165.715 462.216 164.083 459.816 164.083C457.352 164.083 455.72 165.811 455.72 168.115C455.72 170.403 457.352 172.131 459.816 172.131ZM459.816 170.499C458.472 170.499 457.544 169.443 457.544 168.115C457.544 166.755 458.456 165.699 459.816 165.699C461.096 165.699 462.088 166.675 462.088 168.115C462.088 169.523 461.08 170.499 459.816 170.499ZM465.777 172.003H467.569V168.307C467.569 167.027 468.337 166.051 469.697 166.051C469.825 166.051 470.033 166.067 470.241 166.083V164.083H470.017C469.073 164.083 468.209 164.547 467.601 165.363H467.569V164.195H465.777V172.003ZM474.051 172.131C475.075 172.131 475.571 171.923 476.035 171.667L475.571 170.115C475.155 170.339 474.723 170.451 474.419 170.451C473.907 170.451 473.667 170.163 473.667 169.363V165.715H475.955V164.195H473.667V161.411L471.875 161.603V164.195H470.915V165.715H471.875V169.539C471.875 171.283 472.707 172.131 474.051 172.131ZM484.176 172.131C485.2 172.131 485.696 171.923 486.16 171.667L485.696 170.115C485.28 170.339 484.848 170.451 484.544 170.451C484.032 170.451 483.792 170.163 483.792 169.363V165.715H486.08V164.195H483.792V161.411L482 161.603V164.195H481.04V165.715H482V169.539C482 171.283 482.832 172.131 484.176 172.131ZM494.46 168.003C494.46 165.731 492.972 164.083 490.78 164.083C488.492 164.083 486.86 165.699 486.86 168.099C486.86 170.547 488.54 172.131 490.908 172.131C492.588 172.131 493.564 171.507 494.22 170.659L492.972 169.587C492.572 170.083 491.932 170.499 491.004 170.499C489.788 170.499 488.94 169.827 488.716 168.691H494.412C494.428 168.563 494.46 168.291 494.46 168.003ZM490.764 165.699C491.788 165.699 492.428 166.339 492.652 167.283H488.748C489.004 166.259 489.772 165.699 490.764 165.699ZM496.309 172.003H498.101V168.307C498.101 167.027 498.869 166.051 500.229 166.051C500.357 166.051 500.565 166.067 500.773 166.083V164.083H500.549C499.605 164.083 498.741 164.547 498.133 165.363H498.101V164.195H496.309V172.003ZM502.262 172.003H504.054V168.115C504.054 166.579 504.854 165.699 505.926 165.699C506.982 165.699 507.478 166.531 507.478 167.939V172.003H509.27V168.115C509.27 166.579 510.086 165.699 511.094 165.699C512.15 165.699 512.614 166.531 512.614 167.939V172.003H514.406V167.491C514.406 165.155 513.382 164.083 511.67 164.083C510.518 164.083 509.526 164.531 508.87 165.379H508.838C508.374 164.499 507.558 164.083 506.502 164.083C505.606 164.083 504.71 164.499 504.07 165.267H504.054V164.195H502.262V172.003Z" fill="#FF8A00"/>
<rect y="232.004" width="560" height="100" rx="8" fill="white"/>
<rect opacity="0.2" x="452" y="266.004" width="76" height="32" rx="10.2763" fill="#EB5757"/>
<path d="M469.744 288.132C472.576 288.132 474.288 286.276 474.288 283.332V276.644H472.352V283.188C472.352 285.14 471.264 286.308 469.744 286.308C468.112 286.308 467.152 284.996 467.152 283.188V276.644H465.232V283.332C465.232 286.388 467.056 288.132 469.744 288.132ZM476.668 288.004H478.46V284.308C478.46 283.028 479.228 282.052 480.588 282.052C480.716 282.052 480.924 282.068 481.132 282.084V280.084H480.908C479.964 280.084 479.1 280.548 478.492 281.364H478.46V280.196H476.668V288.004ZM485.89 291.284C488.786 291.284 489.874 289.572 489.874 287.204V280.196H488.082V281.028H488.05C487.394 280.404 486.514 280.084 485.618 280.084C483.458 280.084 481.906 281.732 481.906 284.02C481.906 286.34 483.538 287.876 485.714 287.876C486.674 287.876 487.49 287.524 488.082 286.932H488.114V287.748C488.114 288.788 487.33 289.668 485.794 289.668C484.674 289.668 483.986 289.348 483.138 288.9L482.706 290.468C483.586 290.996 484.722 291.284 485.89 291.284ZM485.954 286.228C484.69 286.228 483.73 285.364 483.73 283.972C483.73 282.644 484.626 281.716 485.954 281.716C487.202 281.716 488.162 282.612 488.162 283.94C488.162 285.268 487.25 286.228 485.954 286.228ZM499.257 284.004C499.257 281.732 497.769 280.084 495.577 280.084C493.289 280.084 491.657 281.7 491.657 284.1C491.657 286.548 493.337 288.132 495.705 288.132C497.385 288.132 498.361 287.508 499.017 286.66L497.769 285.588C497.369 286.084 496.729 286.5 495.801 286.5C494.585 286.5 493.737 285.828 493.513 284.692H499.209C499.225 284.564 499.257 284.292 499.257 284.004ZM495.561 281.7C496.585 281.7 497.225 282.34 497.449 283.284H493.545C493.801 282.26 494.569 281.7 495.561 281.7ZM501.106 288.004H502.898V284.084C502.898 282.548 503.698 281.7 504.914 281.7C505.986 281.7 506.61 282.228 506.61 283.876V288.004H508.402V283.412C508.402 281.06 507.25 280.084 505.538 280.084C504.514 280.084 503.57 280.5 502.93 281.268H502.898V280.196H501.106V288.004ZM512.91 288.132C513.934 288.132 514.43 287.924 514.894 287.668L514.43 286.116C514.014 286.34 513.582 286.452 513.278 286.452C512.766 286.452 512.526 286.164 512.526 285.364V281.716H514.814V280.196H512.526V277.412L510.734 277.604V280.196H509.774V281.716H510.734V285.54C510.734 287.284 511.566 288.132 512.91 288.132Z" fill="#EB5757"/>
<circle cx="48" cy="280.004" r="15.1887" stroke="#BCB8CE" stroke-width="1.62258"/>
<path d="M48 269.337V280.004H58.6667C58.6667 273.337 55.3333 269.337 48 269.337Z" fill="#BCB8CE"/>
<path d="M48 290.67V280.004H58.6667C58.6667 286.67 55.3333 290.67 48 290.67Z" fill="#BCB8CE"/>
<path d="M48 290.67V280.004L37.3333 283.337C39.3333 288.004 42.6667 290.67 48 290.67Z" fill="#BCB8CE"/>
<path d="M95.68 286.724C94.5733 287.777 93.16 288.304 91.44 288.304C89.72 288.304 88.3067 287.777 87.2 286.724C86.0933 285.67 85.54 284.15 85.54 282.164V273.804H87.96V282.264C87.96 283.437 88.2533 284.364 88.84 285.044C89.44 285.724 90.3067 286.064 91.44 286.064C92.5733 286.064 93.4333 285.724 94.02 285.044C94.62 284.364 94.92 283.437 94.92 282.264V273.804H97.34V282.164C97.34 284.15 96.7867 285.67 95.68 286.724ZM102.703 286.644V292.164H100.323V277.624H102.523V279.104C103.256 277.957 104.423 277.384 106.023 277.384C107.516 277.384 108.689 277.904 109.543 278.944C110.409 279.984 110.843 281.277 110.843 282.824C110.843 284.37 110.409 285.664 109.543 286.704C108.689 287.73 107.516 288.244 106.023 288.244C104.503 288.244 103.396 287.71 102.703 286.644ZM102.623 282.824C102.623 283.784 102.883 284.577 103.403 285.204C103.936 285.83 104.649 286.144 105.543 286.144C106.423 286.144 107.129 285.83 107.663 285.204C108.196 284.564 108.463 283.77 108.463 282.824C108.463 281.85 108.196 281.044 107.663 280.404C107.129 279.764 106.423 279.444 105.543 279.444C104.649 279.444 103.936 279.764 103.403 280.404C102.883 281.03 102.623 281.837 102.623 282.824ZM120.478 278.984V273.004H122.858V288.004H120.658V286.524C119.951 287.67 118.784 288.244 117.158 288.244C115.678 288.244 114.504 287.73 113.638 286.704C112.784 285.664 112.358 284.37 112.358 282.824C112.358 281.277 112.784 279.984 113.638 278.944C114.504 277.904 115.678 277.384 117.158 277.384C118.664 277.384 119.771 277.917 120.478 278.984ZM120.578 282.824C120.578 281.85 120.311 281.05 119.778 280.424C119.258 279.797 118.551 279.484 117.658 279.484C116.778 279.484 116.071 279.797 115.538 280.424C115.004 281.05 114.738 281.85 114.738 282.824C114.738 283.77 115.004 284.564 115.538 285.204C116.071 285.83 116.778 286.144 117.658 286.144C118.551 286.144 119.258 285.83 119.778 285.204C120.311 284.577 120.578 283.784 120.578 282.824ZM132.153 283.124L129.393 283.544C128.099 283.744 127.453 284.237 127.453 285.024C127.453 285.93 128.066 286.384 129.293 286.384C130.213 286.384 130.919 286.137 131.413 285.644C131.906 285.15 132.153 284.53 132.153 283.784V283.124ZM128.813 288.244C127.586 288.244 126.673 287.957 126.073 287.384C125.473 286.81 125.173 286.05 125.173 285.104C125.173 283.29 126.499 282.197 129.153 281.824L132.153 281.404V281.244C132.153 279.977 131.413 279.344 129.933 279.344C128.639 279.344 127.906 279.857 127.733 280.884H125.413C125.519 279.87 125.939 279.037 126.673 278.384C127.419 277.717 128.526 277.384 129.993 277.384C131.473 277.384 132.586 277.724 133.333 278.404C134.093 279.084 134.473 280.037 134.473 281.264V286.044C134.473 286.884 134.573 287.537 134.773 288.004H132.513C132.499 288.004 132.479 287.957 132.453 287.864C132.439 287.757 132.419 287.59 132.393 287.364C132.379 287.137 132.373 286.897 132.373 286.644C131.666 287.71 130.479 288.244 128.813 288.244ZM141.741 285.884V287.944C141.447 288.024 141.034 288.064 140.501 288.064C138.474 288.064 137.461 287.044 137.461 285.004V279.524H135.881V277.624H137.461V274.924H139.841V277.624H141.781V279.524H139.841V284.764C139.841 285.577 140.227 285.984 141.001 285.984L141.741 285.884ZM153.027 283.504H145.127C145.221 284.33 145.521 284.99 146.027 285.484C146.534 285.964 147.201 286.204 148.027 286.204C148.574 286.204 149.067 286.07 149.507 285.804C149.947 285.537 150.261 285.177 150.447 284.724H152.847C152.527 285.777 151.927 286.63 151.047 287.284C150.181 287.924 149.154 288.244 147.967 288.244C146.421 288.244 145.167 287.73 144.207 286.704C143.261 285.677 142.787 284.377 142.787 282.804C142.787 281.27 143.267 279.984 144.227 278.944C145.187 277.904 146.427 277.384 147.947 277.384C149.467 277.384 150.694 277.897 151.627 278.924C152.574 279.937 153.047 281.217 153.047 282.764L153.027 283.504ZM147.947 279.324C147.201 279.324 146.581 279.544 146.087 279.984C145.594 280.424 145.287 281.01 145.167 281.744H150.687C150.581 281.01 150.287 280.424 149.807 279.984C149.327 279.544 148.707 279.324 147.947 279.324ZM162.8 273.004V278.744C163.427 277.837 164.434 277.384 165.82 277.384C167.047 277.384 167.994 277.757 168.66 278.504C169.34 279.25 169.68 280.244 169.68 281.484V288.004H167.3V281.784C167.3 281.05 167.127 280.477 166.78 280.064C166.447 279.637 165.934 279.424 165.24 279.424C164.48 279.424 163.88 279.65 163.44 280.104C163.014 280.557 162.8 281.19 162.8 282.004V288.004H160.42V273.004H162.8ZM182.031 283.504H174.131C174.225 284.33 174.525 284.99 175.031 285.484C175.538 285.964 176.205 286.204 177.031 286.204C177.578 286.204 178.071 286.07 178.511 285.804C178.951 285.537 179.265 285.177 179.451 284.724H181.851C181.531 285.777 180.931 286.63 180.051 287.284C179.185 287.924 178.158 288.244 176.971 288.244C175.425 288.244 174.171 287.73 173.211 286.704C172.265 285.677 171.791 284.377 171.791 282.804C171.791 281.27 172.271 279.984 173.231 278.944C174.191 277.904 175.431 277.384 176.951 277.384C178.471 277.384 179.698 277.897 180.631 278.924C181.578 279.937 182.051 281.217 182.051 282.764L182.031 283.504ZM176.951 279.324C176.205 279.324 175.585 279.544 175.091 279.984C174.598 280.424 174.291 281.01 174.171 281.744H179.691C179.585 281.01 179.291 280.424 178.811 279.984C178.331 279.544 177.711 279.324 176.951 279.324ZM186.609 288.004H184.229V273.004H186.609V288.004ZM191.863 286.644V292.164H189.483V277.624H191.683V279.104C192.416 277.957 193.583 277.384 195.183 277.384C196.676 277.384 197.85 277.904 198.703 278.944C199.57 279.984 200.003 281.277 200.003 282.824C200.003 284.37 199.57 285.664 198.703 286.704C197.85 287.73 196.676 288.244 195.183 288.244C193.663 288.244 192.556 287.71 191.863 286.644ZM191.783 282.824C191.783 283.784 192.043 284.577 192.563 285.204C193.096 285.83 193.81 286.144 194.703 286.144C195.583 286.144 196.29 285.83 196.823 285.204C197.356 284.564 197.623 283.77 197.623 282.824C197.623 281.85 197.356 281.044 196.823 280.404C196.29 279.764 195.583 279.444 194.703 279.444C193.81 279.444 193.096 279.764 192.563 280.404C192.043 281.03 191.783 281.837 191.783 282.824ZM214.833 278.984V273.004H217.213V288.004H215.013V286.524C214.306 287.67 213.14 288.244 211.513 288.244C210.033 288.244 208.86 287.73 207.993 286.704C207.14 285.664 206.713 284.37 206.713 282.824C206.713 281.277 207.14 279.984 207.993 278.944C208.86 277.904 210.033 277.384 211.513 277.384C213.02 277.384 214.126 277.917 214.833 278.984ZM214.933 282.824C214.933 281.85 214.666 281.05 214.133 280.424C213.613 279.797 212.906 279.484 212.013 279.484C211.133 279.484 210.426 279.797 209.893 280.424C209.36 281.05 209.093 281.85 209.093 282.824C209.093 283.77 209.36 284.564 209.893 285.204C210.426 285.83 211.133 286.144 212.013 286.144C212.906 286.144 213.613 285.83 214.133 285.204C214.666 284.577 214.933 283.784 214.933 282.824ZM224.808 288.244C223.208 288.244 221.908 287.717 220.908 286.664C219.921 285.61 219.428 284.33 219.428 282.824C219.428 281.317 219.921 280.037 220.908 278.984C221.908 277.917 223.208 277.384 224.808 277.384C226.421 277.384 227.721 277.917 228.708 278.984C229.708 280.037 230.208 281.317 230.208 282.824C230.208 284.33 229.708 285.61 228.708 286.664C227.721 287.717 226.421 288.244 224.808 288.244ZM221.808 282.824C221.808 283.81 222.088 284.61 222.648 285.224C223.221 285.837 223.941 286.144 224.808 286.144C225.688 286.144 226.408 285.837 226.968 285.224C227.541 284.61 227.828 283.81 227.828 282.824C227.828 281.824 227.541 281.017 226.968 280.404C226.408 279.79 225.688 279.484 224.808 279.484C223.941 279.484 223.221 279.79 222.648 280.404C222.088 281.017 221.808 281.824 221.808 282.824ZM231.733 282.824C231.733 281.29 232.219 280.004 233.193 278.964C234.166 277.91 235.406 277.384 236.913 277.384C238.339 277.384 239.473 277.79 240.313 278.604C241.166 279.404 241.673 280.33 241.833 281.384H239.393C239.246 280.81 238.946 280.35 238.493 280.004C238.053 279.657 237.519 279.484 236.893 279.484C236.053 279.484 235.379 279.797 234.873 280.424C234.366 281.037 234.113 281.837 234.113 282.824C234.113 283.81 234.366 284.61 234.873 285.224C235.379 285.837 236.053 286.144 236.893 286.144C237.519 286.144 238.053 285.97 238.493 285.624C238.946 285.277 239.246 284.817 239.393 284.244H241.833C241.673 285.297 241.166 286.23 240.313 287.044C239.473 287.844 238.339 288.244 236.913 288.244C235.406 288.244 234.166 287.724 233.193 286.684C232.219 285.63 231.733 284.344 231.733 282.824ZM250.558 283.604V277.624H252.938V288.004H250.738V286.664C250.498 287.117 250.105 287.497 249.558 287.804C249.025 288.097 248.365 288.244 247.578 288.244C246.351 288.244 245.405 287.877 244.738 287.144C244.085 286.397 243.758 285.404 243.758 284.164V277.624H246.138V283.844C246.138 285.417 246.811 286.204 248.158 286.204C248.905 286.204 249.491 285.984 249.918 285.544C250.345 285.09 250.558 284.444 250.558 283.604ZM264.851 282.044V288.004H262.471V281.784C262.471 280.21 261.818 279.424 260.511 279.424C259.804 279.424 259.238 279.65 258.811 280.104C258.398 280.557 258.191 281.177 258.191 281.964V288.004H255.811V277.624H258.011V279.004C258.264 278.537 258.651 278.15 259.171 277.844C259.691 277.537 260.338 277.384 261.111 277.384C262.551 277.384 263.591 277.93 264.231 279.024C265.111 277.93 266.284 277.384 267.751 277.384C268.964 277.384 269.898 277.764 270.551 278.524C271.204 279.27 271.531 280.257 271.531 281.484V288.004H269.151V281.784C269.151 280.21 268.498 279.424 267.191 279.424C266.471 279.424 265.898 279.657 265.471 280.124C265.058 280.577 264.851 281.217 264.851 282.044ZM283.867 283.504H275.967C276.061 284.33 276.361 284.99 276.867 285.484C277.374 285.964 278.041 286.204 278.867 286.204C279.414 286.204 279.907 286.07 280.347 285.804C280.787 285.537 281.101 285.177 281.287 284.724H283.687C283.367 285.777 282.767 286.63 281.887 287.284C281.021 287.924 279.994 288.244 278.807 288.244C277.261 288.244 276.007 287.73 275.047 286.704C274.101 285.677 273.627 284.377 273.627 282.804C273.627 281.27 274.107 279.984 275.067 278.944C276.027 277.904 277.267 277.384 278.787 277.384C280.307 277.384 281.534 277.897 282.467 278.924C283.414 279.937 283.887 281.217 283.887 282.764L283.867 283.504ZM278.787 279.324C278.041 279.324 277.421 279.544 276.927 279.984C276.434 280.424 276.127 281.01 276.007 281.744H281.527C281.421 281.01 281.127 280.424 280.647 279.984C280.167 279.544 279.547 279.324 278.787 279.324ZM288.265 277.624V279.004C288.505 278.55 288.898 278.17 289.445 277.864C290.005 277.544 290.678 277.384 291.465 277.384C292.692 277.384 293.638 277.757 294.305 278.504C294.985 279.25 295.325 280.244 295.325 281.484V288.004H292.945V281.784C292.945 281.05 292.772 280.477 292.425 280.064C292.092 279.637 291.578 279.424 290.885 279.424C290.125 279.424 289.525 279.65 289.085 280.104C288.658 280.557 288.445 281.184 288.445 281.984V288.004H286.065V277.624H288.265ZM302.776 285.884V287.944C302.482 288.024 302.069 288.064 301.536 288.064C299.509 288.064 298.496 287.044 298.496 285.004V279.524H296.916V277.624H298.496V274.924H300.876V277.624H302.816V279.524H300.876V284.764C300.876 285.577 301.262 285.984 302.036 285.984L302.776 285.884ZM308.277 288.244C306.851 288.244 305.777 287.91 305.057 287.244C304.337 286.577 303.944 285.724 303.877 284.684H306.177C306.204 285.164 306.411 285.55 306.797 285.844C307.184 286.137 307.724 286.284 308.417 286.284C309.031 286.284 309.504 286.177 309.837 285.964C310.171 285.75 310.337 285.464 310.337 285.104C310.337 284.704 310.131 284.41 309.717 284.224C309.317 284.024 308.824 283.877 308.237 283.784C307.651 283.69 307.064 283.57 306.477 283.424C305.891 283.264 305.391 282.957 304.977 282.504C304.577 282.05 304.377 281.43 304.377 280.644C304.377 279.737 304.751 278.97 305.497 278.344C306.257 277.704 307.257 277.384 308.497 277.384C309.204 277.384 309.824 277.497 310.357 277.724C310.904 277.937 311.324 278.224 311.617 278.584C311.924 278.944 312.151 279.31 312.297 279.684C312.457 280.057 312.551 280.437 312.577 280.824H310.297C310.257 280.41 310.077 280.057 309.757 279.764C309.451 279.47 309.011 279.324 308.437 279.324C307.864 279.324 307.424 279.437 307.117 279.664C306.811 279.877 306.657 280.177 306.657 280.564C306.657 280.924 306.857 281.197 307.257 281.384C307.671 281.57 308.171 281.71 308.757 281.804C309.344 281.897 309.931 282.03 310.517 282.204C311.104 282.364 311.597 282.677 311.997 283.144C312.411 283.61 312.617 284.23 312.617 285.004C312.617 285.937 312.237 286.71 311.477 287.324C310.731 287.937 309.664 288.244 308.277 288.244Z" fill="#746E8C"/>
<rect width="560" height="100" rx="8" fill="white"/>
<rect opacity="0.2" x="426" y="34.0034" width="102" height="32" rx="10.2763" fill="#56CCF2"/>
<path d="M439.392 56.0034H446.592V54.2754H441.328V44.6434H439.392V56.0034ZM451.972 56.1314C454.372 56.1314 456.068 54.4834 456.068 52.1154C456.068 49.7154 454.372 48.0834 451.972 48.0834C449.508 48.0834 447.876 49.8114 447.876 52.1154C447.876 54.4034 449.508 56.1314 451.972 56.1314ZM451.972 54.4994C450.628 54.4994 449.7 53.4434 449.7 52.1154C449.7 50.7554 450.612 49.6994 451.972 49.6994C453.252 49.6994 454.244 50.6754 454.244 52.1154C454.244 53.5234 453.236 54.4994 451.972 54.4994ZM457.934 56.0034H459.726V52.0834C459.726 50.5474 460.526 49.6994 461.742 49.6994C462.814 49.6994 463.438 50.2274 463.438 51.8754V56.0034H465.23V51.4114C465.23 49.0594 464.078 48.0834 462.366 48.0834C461.342 48.0834 460.398 48.4994 459.758 49.2674H459.726V48.1954H457.934V56.0034ZM470.906 59.2834C473.802 59.2834 474.89 57.5714 474.89 55.2034V48.1954H473.098V49.0274H473.066C472.41 48.4034 471.53 48.0834 470.634 48.0834C468.474 48.0834 466.922 49.7314 466.922 52.0194C466.922 54.3394 468.554 55.8754 470.73 55.8754C471.69 55.8754 472.506 55.5234 473.098 54.9314H473.13V55.7474C473.13 56.7874 472.346 57.6674 470.81 57.6674C469.69 57.6674 469.002 57.3474 468.154 56.8994L467.722 58.4674C468.602 58.9954 469.738 59.2834 470.906 59.2834ZM470.97 54.2274C469.706 54.2274 468.746 53.3634 468.746 51.9714C468.746 50.6434 469.642 49.7154 470.97 49.7154C472.218 49.7154 473.178 50.6114 473.178 51.9394C473.178 53.2674 472.266 54.2274 470.97 54.2274ZM483.738 56.1314C484.762 56.1314 485.258 55.9234 485.722 55.6674L485.258 54.1154C484.842 54.3394 484.41 54.4514 484.106 54.4514C483.594 54.4514 483.354 54.1634 483.354 53.3634V49.7154H485.642V48.1954H483.354V45.4114L481.562 45.6034V48.1954H480.602V49.7154H481.562V53.5394C481.562 55.2834 482.394 56.1314 483.738 56.1314ZM494.023 52.0034C494.023 49.7314 492.535 48.0834 490.343 48.0834C488.055 48.0834 486.423 49.6994 486.423 52.0994C486.423 54.5474 488.103 56.1314 490.471 56.1314C492.151 56.1314 493.127 55.5074 493.783 54.6594L492.535 53.5874C492.135 54.0834 491.495 54.4994 490.567 54.4994C489.351 54.4994 488.503 53.8274 488.279 52.6914H493.975C493.991 52.5634 494.023 52.2914 494.023 52.0034ZM490.327 49.6994C491.351 49.6994 491.991 50.3394 492.215 51.2834H488.311C488.567 50.2594 489.335 49.6994 490.327 49.6994ZM495.871 56.0034H497.663V52.3074C497.663 51.0274 498.431 50.0514 499.791 50.0514C499.919 50.0514 500.127 50.0674 500.335 50.0834V48.0834H500.111C499.167 48.0834 498.303 48.5474 497.695 49.3634H497.663V48.1954H495.871V56.0034ZM501.824 56.0034H503.616V52.1154C503.616 50.5794 504.416 49.6994 505.488 49.6994C506.544 49.6994 507.04 50.5314 507.04 51.9394V56.0034H508.832V52.1154C508.832 50.5794 509.648 49.6994 510.656 49.6994C511.712 49.6994 512.176 50.5314 512.176 51.9394V56.0034H513.968V51.4914C513.968 49.1554 512.944 48.0834 511.232 48.0834C510.08 48.0834 509.088 48.5314 508.432 49.3794H508.4C507.936 48.4994 507.12 48.0834 506.064 48.0834C505.168 48.0834 504.272 48.4994 503.632 49.2674H503.616V48.1954H501.824V56.0034Z" fill="#28B0DC"/>
<circle cx="48" cy="50.0034" r="14.9859" stroke="#BCB8CE" stroke-width="2.02823"/>
<path d="M48 39.3364V50.0031L55.9194 42.0031C54.1685 40.2759 51.554 39.3364 48 39.3364Z" fill="#BCB8CE"/>
<path d="M88.1 41.8034V56.0034H85.68V41.8034H88.1ZM93.4213 45.6234V47.0034C93.6613 46.5501 94.0546 46.1701 94.6013 45.8634C95.1613 45.5434 95.8346 45.3834 96.6213 45.3834C97.8479 45.3834 98.7946 45.7568 99.4613 46.5034C100.141 47.2501 100.481 48.2434 100.481 49.4834V56.0034H98.1013V49.7834C98.1013 49.0501 97.9279 48.4768 97.5813 48.0634C97.2479 47.6368 96.7346 47.4234 96.0413 47.4234C95.2813 47.4234 94.6813 47.6501 94.2413 48.1034C93.8146 48.5568 93.6013 49.1834 93.6013 49.9834V56.0034H91.2213V45.6234H93.4213ZM107.932 53.8834V55.9434C107.639 56.0234 107.225 56.0634 106.692 56.0634C104.665 56.0634 103.652 55.0434 103.652 53.0034V47.5234H102.072V45.6234H103.652V42.9234H106.032V45.6234H107.972V47.5234H106.032V52.7634C106.032 53.5768 106.419 53.9834 107.192 53.9834L107.932 53.8834ZM115.474 45.5434V47.7634C115.287 47.7368 115.107 47.7234 114.934 47.7234C113.147 47.7234 112.254 48.6834 112.254 50.6034V56.0034H109.874V45.6234H112.074V47.0634C112.66 46.0368 113.68 45.5234 115.134 45.5234L115.474 45.5434ZM121.449 56.2434C119.849 56.2434 118.549 55.7168 117.549 54.6634C116.562 53.6101 116.069 52.3301 116.069 50.8234C116.069 49.3168 116.562 48.0368 117.549 46.9834C118.549 45.9168 119.849 45.3834 121.449 45.3834C123.062 45.3834 124.362 45.9168 125.349 46.9834C126.349 48.0368 126.849 49.3168 126.849 50.8234C126.849 52.3301 126.349 53.6101 125.349 54.6634C124.362 55.7168 123.062 56.2434 121.449 56.2434ZM118.449 50.8234C118.449 51.8101 118.729 52.6101 119.289 53.2234C119.862 53.8368 120.582 54.1434 121.449 54.1434C122.329 54.1434 123.049 53.8368 123.609 53.2234C124.182 52.6101 124.469 51.8101 124.469 50.8234C124.469 49.8234 124.182 49.0168 123.609 48.4034C123.049 47.7901 122.329 47.4834 121.449 47.4834C120.582 47.4834 119.862 47.7901 119.289 48.4034C118.729 49.0168 118.449 49.8234 118.449 50.8234ZM136.493 46.9834V41.0034H138.873V56.0034H136.673V54.5234C135.967 55.6701 134.8 56.2434 133.173 56.2434C131.693 56.2434 130.52 55.7301 129.653 54.7034C128.8 53.6634 128.373 52.3701 128.373 50.8234C128.373 49.2768 128.8 47.9834 129.653 46.9434C130.52 45.9034 131.693 45.3834 133.173 45.3834C134.68 45.3834 135.787 45.9168 136.493 46.9834ZM136.593 50.8234C136.593 49.8501 136.327 49.0501 135.793 48.4234C135.273 47.7968 134.567 47.4834 133.673 47.4834C132.793 47.4834 132.087 47.7968 131.553 48.4234C131.02 49.0501 130.753 49.8501 130.753 50.8234C130.753 51.7701 131.02 52.5634 131.553 53.2034C132.087 53.8301 132.793 54.1434 133.673 54.1434C134.567 54.1434 135.273 53.8301 135.793 53.2034C136.327 52.5768 136.593 51.7834 136.593 50.8234ZM148.468 51.6034V45.6234H150.848V56.0034H148.648V54.6634C148.408 55.1168 148.015 55.4968 147.468 55.8034C146.935 56.0968 146.275 56.2434 145.488 56.2434C144.261 56.2434 143.315 55.8768 142.648 55.1434C141.995 54.3968 141.668 53.4034 141.668 52.1634V45.6234H144.048V51.8434C144.048 53.4168 144.721 54.2034 146.068 54.2034C146.815 54.2034 147.401 53.9834 147.828 53.5434C148.255 53.0901 148.468 52.4434 148.468 51.6034ZM153.041 50.8234C153.041 49.2901 153.528 48.0034 154.501 46.9634C155.475 45.9101 156.715 45.3834 158.221 45.3834C159.648 45.3834 160.781 45.7901 161.621 46.6034C162.475 47.4034 162.981 48.3301 163.141 49.3834H160.701C160.555 48.8101 160.255 48.3501 159.801 48.0034C159.361 47.6568 158.828 47.4834 158.201 47.4834C157.361 47.4834 156.688 47.7968 156.181 48.4234C155.675 49.0368 155.421 49.8368 155.421 50.8234C155.421 51.8101 155.675 52.6101 156.181 53.2234C156.688 53.8368 157.361 54.1434 158.201 54.1434C158.828 54.1434 159.361 53.9701 159.801 53.6234C160.255 53.2768 160.555 52.8168 160.701 52.2434H163.141C162.981 53.2968 162.475 54.2301 161.621 55.0434C160.781 55.8434 159.648 56.2434 158.221 56.2434C156.715 56.2434 155.475 55.7234 154.501 54.6834C153.528 53.6301 153.041 52.3434 153.041 50.8234ZM174.609 51.5034H166.709C166.803 52.3301 167.103 52.9901 167.609 53.4834C168.116 53.9634 168.783 54.2034 169.609 54.2034C170.156 54.2034 170.649 54.0701 171.089 53.8034C171.529 53.5368 171.843 53.1768 172.029 52.7234H174.429C174.109 53.7768 173.509 54.6301 172.629 55.2834C171.763 55.9234 170.736 56.2434 169.549 56.2434C168.003 56.2434 166.749 55.7301 165.789 54.7034C164.843 53.6768 164.369 52.3768 164.369 50.8034C164.369 49.2701 164.849 47.9834 165.809 46.9434C166.769 45.9034 168.009 45.3834 169.529 45.3834C171.049 45.3834 172.276 45.8968 173.209 46.9234C174.156 47.9368 174.629 49.2168 174.629 50.7634L174.609 51.5034ZM169.529 47.3234C168.783 47.3234 168.163 47.5434 167.669 47.9834C167.176 48.4234 166.869 49.0101 166.749 49.7434H172.269C172.163 49.0101 171.869 48.4234 171.389 47.9834C170.909 47.5434 170.289 47.3234 169.529 47.3234ZM188.403 51.1234L185.643 51.5434C184.349 51.7434 183.703 52.2368 183.703 53.0234C183.703 53.9301 184.316 54.3834 185.543 54.3834C186.463 54.3834 187.169 54.1368 187.663 53.6434C188.156 53.1501 188.403 52.5301 188.403 51.7834V51.1234ZM185.063 56.2434C183.836 56.2434 182.923 55.9568 182.323 55.3834C181.723 54.8101 181.423 54.0501 181.423 53.1034C181.423 51.2901 182.749 50.1968 185.403 49.8234L188.403 49.4034V49.2434C188.403 47.9768 187.663 47.3434 186.183 47.3434C184.889 47.3434 184.156 47.8568 183.983 48.8834H181.663C181.769 47.8701 182.189 47.0368 182.923 46.3834C183.669 45.7168 184.776 45.3834 186.243 45.3834C187.723 45.3834 188.836 45.7234 189.583 46.4034C190.343 47.0834 190.723 48.0368 190.723 49.2634V54.0434C190.723 54.8834 190.823 55.5368 191.023 56.0034H188.763C188.749 56.0034 188.729 55.9568 188.703 55.8634C188.689 55.7568 188.669 55.5901 188.643 55.3634C188.629 55.1368 188.623 54.8968 188.623 54.6434C187.916 55.7101 186.729 56.2434 185.063 56.2434ZM202.516 56.0034L200.176 48.8834H200.156L197.796 56.0034H195.536L191.916 45.6234H194.376L196.696 53.0634L199.076 45.6234H201.276L203.636 53.0834L205.976 45.6234H208.396L204.776 56.0034H202.516ZM219.18 51.5034H211.28C211.373 52.3301 211.673 52.9901 212.18 53.4834C212.686 53.9634 213.353 54.2034 214.18 54.2034C214.726 54.2034 215.22 54.0701 215.66 53.8034C216.1 53.5368 216.413 53.1768 216.6 52.7234H219C218.68 53.7768 218.08 54.6301 217.2 55.2834C216.333 55.9234 215.306 56.2434 214.12 56.2434C212.573 56.2434 211.32 55.7301 210.36 54.7034C209.413 53.6768 208.94 52.3768 208.94 50.8034C208.94 49.2701 209.42 47.9834 210.38 46.9434C211.34 45.9034 212.58 45.3834 214.1 45.3834C215.62 45.3834 216.846 45.8968 217.78 46.9234C218.726 47.9368 219.2 49.2168 219.2 50.7634L219.18 51.5034ZM214.1 47.3234C213.353 47.3234 212.733 47.5434 212.24 47.9834C211.746 48.4234 211.44 49.0101 211.32 49.7434H216.84C216.733 49.0101 216.44 48.4234 215.96 47.9834C215.48 47.5434 214.86 47.3234 214.1 47.3234ZM224.938 56.2434C223.511 56.2434 222.438 55.9101 221.718 55.2434C220.998 54.5768 220.604 53.7234 220.538 52.6834H222.838C222.864 53.1634 223.071 53.5501 223.458 53.8434C223.844 54.1368 224.384 54.2834 225.077 54.2834C225.691 54.2834 226.164 54.1768 226.498 53.9634C226.831 53.7501 226.998 53.4634 226.998 53.1034C226.998 52.7034 226.791 52.4101 226.378 52.2234C225.978 52.0234 225.484 51.8768 224.898 51.7834C224.311 51.6901 223.724 51.5701 223.138 51.4234C222.551 51.2634 222.051 50.9568 221.638 50.5034C221.238 50.0501 221.038 49.4301 221.038 48.6434C221.038 47.7368 221.411 46.9701 222.158 46.3434C222.918 45.7034 223.918 45.3834 225.158 45.3834C225.864 45.3834 226.484 45.4968 227.018 45.7234C227.564 45.9368 227.984 46.2234 228.278 46.5834C228.584 46.9434 228.811 47.3101 228.958 47.6834C229.118 48.0568 229.211 48.4368 229.238 48.8234H226.958C226.918 48.4101 226.738 48.0568 226.418 47.7634C226.111 47.4701 225.671 47.3234 225.098 47.3234C224.524 47.3234 224.084 47.4368 223.778 47.6634C223.471 47.8768 223.318 48.1768 223.318 48.5634C223.318 48.9234 223.518 49.1968 223.918 49.3834C224.331 49.5701 224.831 49.7101 225.418 49.8034C226.004 49.8968 226.591 50.0301 227.178 50.2034C227.764 50.3634 228.258 50.6768 228.658 51.1434C229.071 51.6101 229.278 52.2301 229.278 53.0034C229.278 53.9368 228.898 54.7101 228.138 55.3234C227.391 55.9368 226.324 56.2434 224.938 56.2434ZM236.117 56.2434C234.517 56.2434 233.217 55.7168 232.217 54.6634C231.23 53.6101 230.737 52.3301 230.737 50.8234C230.737 49.3168 231.23 48.0368 232.217 46.9834C233.217 45.9168 234.517 45.3834 236.117 45.3834C237.73 45.3834 239.03 45.9168 240.017 46.9834C241.017 48.0368 241.517 49.3168 241.517 50.8234C241.517 52.3301 241.017 53.6101 240.017 54.6634C239.03 55.7168 237.73 56.2434 236.117 56.2434ZM233.117 50.8234C233.117 51.8101 233.397 52.6101 233.957 53.2234C234.53 53.8368 235.25 54.1434 236.117 54.1434C236.997 54.1434 237.717 53.8368 238.277 53.2234C238.85 52.6101 239.137 51.8101 239.137 50.8234C239.137 49.8234 238.85 49.0168 238.277 48.4034C237.717 47.7901 236.997 47.4834 236.117 47.4834C235.25 47.4834 234.53 47.7901 233.957 48.4034C233.397 49.0168 233.117 49.8234 233.117 50.8234ZM252.761 50.0434V56.0034H250.381V49.7834C250.381 48.2101 249.728 47.4234 248.421 47.4234C247.715 47.4234 247.148 47.6501 246.721 48.1034C246.308 48.5568 246.101 49.1768 246.101 49.9634V56.0034H243.721V45.6234H245.921V47.0034C246.175 46.5368 246.561 46.1501 247.081 45.8434C247.601 45.5368 248.248 45.3834 249.021 45.3834C250.461 45.3834 251.501 45.9301 252.141 47.0234C253.021 45.9301 254.195 45.3834 255.661 45.3834C256.875 45.3834 257.808 45.7634 258.461 46.5234C259.115 47.2701 259.441 48.2568 259.441 49.4834V56.0034H257.061V49.7834C257.061 48.2101 256.408 47.4234 255.101 47.4234C254.381 47.4234 253.808 47.6568 253.381 48.1234C252.968 48.5768 252.761 49.2168 252.761 50.0434ZM271.777 51.5034H263.877C263.971 52.3301 264.271 52.9901 264.777 53.4834C265.284 53.9634 265.951 54.2034 266.777 54.2034C267.324 54.2034 267.817 54.0701 268.257 53.8034C268.697 53.5368 269.011 53.1768 269.197 52.7234H271.597C271.277 53.7768 270.677 54.6301 269.797 55.2834C268.931 55.9234 267.904 56.2434 266.717 56.2434C265.171 56.2434 263.917 55.7301 262.957 54.7034C262.011 53.6768 261.537 52.3768 261.537 50.8034C261.537 49.2701 262.017 47.9834 262.977 46.9434C263.937 45.9034 265.177 45.3834 266.697 45.3834C268.217 45.3834 269.444 45.8968 270.377 46.9234C271.324 47.9368 271.797 49.2168 271.797 50.7634L271.777 51.5034ZM266.697 47.3234C265.951 47.3234 265.331 47.5434 264.837 47.9834C264.344 48.4234 264.037 49.0101 263.917 49.7434H269.437C269.331 49.0101 269.037 48.4234 268.557 47.9834C268.077 47.5434 267.457 47.3234 266.697 47.3234ZM279.59 45.6234V44.5234C279.59 43.3501 279.89 42.4701 280.49 41.8834C281.09 41.2968 281.91 41.0034 282.95 41.0034L283.75 41.0634V43.1634C283.67 43.1368 283.524 43.1234 283.31 43.1234C282.83 43.1234 282.484 43.2434 282.27 43.4834C282.07 43.7101 281.97 44.1034 281.97 44.6634V45.6234H283.81V47.5234H281.97V56.0034H279.59V47.5234H277.93V45.6234H279.59ZM294.941 51.5034H287.041C287.135 52.3301 287.435 52.9901 287.941 53.4834C288.448 53.9634 289.115 54.2034 289.941 54.2034C290.488 54.2034 290.981 54.0701 291.421 53.8034C291.861 53.5368 292.175 53.1768 292.361 52.7234H294.761C294.441 53.7768 293.841 54.6301 292.961 55.2834C292.095 55.9234 291.068 56.2434 289.881 56.2434C288.335 56.2434 287.081 55.7301 286.121 54.7034C285.175 53.6768 284.701 52.3768 284.701 50.8034C284.701 49.2701 285.181 47.9834 286.141 46.9434C287.101 45.9034 288.341 45.3834 289.861 45.3834C291.381 45.3834 292.608 45.8968 293.541 46.9234C294.488 47.9368 294.961 49.2168 294.961 50.7634L294.941 51.5034ZM289.861 47.3234C289.115 47.3234 288.495 47.5434 288.001 47.9834C287.508 48.4234 287.201 49.0101 287.081 49.7434H292.601C292.495 49.0101 292.201 48.4234 291.721 47.9834C291.241 47.5434 290.621 47.3234 289.861 47.3234ZM303.539 51.1234L300.779 51.5434C299.486 51.7434 298.839 52.2368 298.839 53.0234C298.839 53.9301 299.453 54.3834 300.679 54.3834C301.599 54.3834 302.306 54.1368 302.799 53.6434C303.293 53.1501 303.539 52.5301 303.539 51.7834V51.1234ZM300.199 56.2434C298.973 56.2434 298.059 55.9568 297.459 55.3834C296.859 54.8101 296.559 54.0501 296.559 53.1034C296.559 51.2901 297.886 50.1968 300.539 49.8234L303.539 49.4034V49.2434C303.539 47.9768 302.799 47.3434 301.319 47.3434C300.026 47.3434 299.293 47.8568 299.119 48.8834H296.799C296.906 47.8701 297.326 47.0368 298.059 46.3834C298.806 45.7168 299.913 45.3834 301.379 45.3834C302.859 45.3834 303.973 45.7234 304.719 46.4034C305.479 47.0834 305.859 48.0368 305.859 49.2634V54.0434C305.859 54.8834 305.959 55.5368 306.159 56.0034H303.899C303.886 56.0034 303.866 55.9568 303.839 55.8634C303.826 55.7568 303.806 55.5901 303.779 55.3634C303.766 55.1368 303.759 54.8968 303.759 54.6434C303.053 55.7101 301.866 56.2434 300.199 56.2434ZM313.127 53.8834V55.9434C312.834 56.0234 312.421 56.0634 311.887 56.0634C309.861 56.0634 308.847 55.0434 308.847 53.0034V47.5234H307.267V45.6234H308.847V42.9234H311.227V45.6234H313.167V47.5234H311.227V52.7634C311.227 53.5768 311.614 53.9834 312.387 53.9834L313.127 53.8834ZM321.769 51.6034V45.6234H324.149V56.0034H321.949V54.6634C321.709 55.1168 321.316 55.4968 320.769 55.8034C320.236 56.0968 319.576 56.2434 318.789 56.2434C317.562 56.2434 316.616 55.8768 315.949 55.1434C315.296 54.3968 314.969 53.4034 314.969 52.1634V45.6234H317.349V51.8434C317.349 53.4168 318.022 54.2034 319.369 54.2034C320.116 54.2034 320.702 53.9834 321.129 53.5434C321.556 53.0901 321.769 52.4434 321.769 51.6034ZM332.622 45.5434V47.7634C332.435 47.7368 332.255 47.7234 332.082 47.7234C330.295 47.7234 329.402 48.6834 329.402 50.6034V56.0034H327.022V45.6234H329.222V47.0634C329.809 46.0368 330.829 45.5234 332.282 45.5234L332.622 45.5434ZM343.457 51.5034H335.557C335.65 52.3301 335.95 52.9901 336.457 53.4834C336.964 53.9634 337.63 54.2034 338.457 54.2034C339.004 54.2034 339.497 54.0701 339.937 53.8034C340.377 53.5368 340.69 53.1768 340.877 52.7234H343.277C342.957 53.7768 342.357 54.6301 341.477 55.2834C340.61 55.9234 339.584 56.2434 338.397 56.2434C336.85 56.2434 335.597 55.7301 334.637 54.7034C333.69 53.6768 333.217 52.3768 333.217 50.8034C333.217 49.2701 333.697 47.9834 334.657 46.9434C335.617 45.9034 336.857 45.3834 338.377 45.3834C339.897 45.3834 341.124 45.8968 342.057 46.9234C343.004 47.9368 343.477 49.2168 343.477 50.7634L343.457 51.5034ZM338.377 47.3234C337.63 47.3234 337.01 47.5434 336.517 47.9834C336.024 48.4234 335.717 49.0101 335.597 49.7434H341.117C341.01 49.0101 340.717 48.4234 340.237 47.9834C339.757 47.5434 339.137 47.3234 338.377 47.3234Z" fill="#746E8C"/>
</svg>
